<?xml version="1.0" encoding="UTF-8"?>
<svg id="Calque_1" data-name="Calque 1" xmlns="http://www.w3.org/2000/svg" viewBox="0 0 450 500">
  <defs>
    <style>
      .cls-1 {
        fill: #343736;
      }

      .cls-1, .cls-2, .cls-3 {
        stroke-width: 0px;
      }

      .cls-2 {
        fill: #cf363b;
      }

      .cls-3 {
        fill: #fff;
      }
    </style>
  </defs>
  <g>
    <path class="cls-3" d="M223.99,424.09c-35.52-.29-81.74-2.93-124.48-20.93-4.89-.02-56.31-.17-56.31-.17-.1,0-.26,0-.42,0-4.75,0-9.52-2.02-13.1-5.54-3.58-3.53-5.64-8.28-5.65-13.02-.02-.44-.02-.81-.01-1.18,0-.17.01-3.83.01-3.83.03-1.97.04-6.02.04-9.93,0-3.86,0-7.7.04-9.71-.07-5.44.06-21.12.18-36.28.1-12.82.2-24.93.16-29.07,0-.04,0-.08,0-.12.03-.5.02-1.12.02-1.76,0-1.25,0-2.55.15-3.55.96-8.84,9.04-16.11,18-16.11l8.65.07c-7.39-29.85,6.35-62.33,32.7-76.43,9.01-5,19.35-7.65,29.86-7.65,7.15,0,14.1,1.21,20.66,3.6,6.09,2.21,11.87,5.38,17.19,9.44l2.85-5.77c.13-.27.32-.5.55-.68l.14-.11c1.35-1.07,1.7-3.57.71-5.03-.35-.52-.44-1.18-.24-1.77l1.02-2.96c.25-.72.87-1.21,1.57-1.32.44-.59.91-1.13,1.4-1.63.14-.14.28-.28.43-.42-2.16-.91-4.71-2.07-5.67-4.52-.61-1.55-.46-3.35.44-5.35,1.17-2.38,2.64-4.18,3.94-5.78,2.57-3.17,3.91-4.81,1.91-8.13-.08,0-.16.01-.24.01-.48,0-.95-.17-1.33-.5-.51.22-.97.42-1.3.56-.25.1-.5.15-.76.15-.57,0-1.13-.25-1.52-.7-.56-.66-.64-1.6-.19-2.34.2-.33.45-.69.72-1.09.14-.21.29-.43.44-.66-.41-.31-.77-.78-.99-1.46-.19-.5-.23-1.04-.11-1.62l-.92-.72c-.7-.55-.95-1.5-.62-2.32.31-.76,1.04-1.25,1.85-1.25.07,0,.13,0,.2,0l1.49.15s0,0,.01,0l-.03-.06c-.43-.92-.1-2.01.76-2.55l.6-.37c.37-1.68.81-3.77,1.25-5.82.6-2.8,1.18-5.52,1.51-6.98.32-1.44.62-2.9.92-4.4,0,0,.5-3.96.6-4.77-.04-1.77.07-3.19.34-4.59.11-.51.25-.97.41-1.42.11-.84.46-3.62.68-5.41-.99-.55-1.01-1.52-.98-1.87.03-.36.16-.7.35-.98.06-.26.17-.49.32-.7.11-.35.28-.69.51-1,.13-.17.27-.32.42-.45l3.78-29.97c.16-1.04.31-2.26.46-3.56.78-6.53,1.84-15.46,6.59-18.64.86-.59,1.87-.73,2.61-.83l.25-.04c.07,0,.13-.02.2-.02.59-.03,1.17-.04,1.75-.04,6.19,0,12.1,1.51,17.81,2.97,1.05.27,2.09.54,3.14.79,12.88,3.67,25.41,8.71,37.54,13.59,4.56,1.83,9.27,3.73,13.91,5.52,7.01,2.79,14.45,5.81,22.78,9.24,5.68,2.61,12.05,6.1,16.73,12.4,1.01,1.11,2.12,2.56,2.43,4.33.18.26.3.57.34.9l.11.98c.3,1.39.4,2.77.49,4.1.06.93.12,1.8.25,2.65.06.37.23,1.93.49,4.44.14,1.32.31,2.96.35,3.21.02.1.03.22.03.32,0,.26-.05.49-.12.68,0,0,2.89,30.84,3.12,33.36.34.52.6,1.03.85,1.53.12.23.23.46.36.69.03.06.07.13.09.19.53,1.27,1.25,2.47,2.02,3.74,1.48,2.45,3,4.99,3.26,8.27.15,1.47,0,2.99-.16,4.46-.09.92-.19,1.81-.19,2.6,4.23,2.26,7.96,5.11,11.44,7.84,3.78,2.92,7.58,6.58,11.3,10.88l.56.63c3.16,3.57,6.43,7.25,9.22,11.4,2.29,3.5,4.04,7.19,5.73,10.76.43.92.87,1.83,1.31,2.75.65.82,1.19,1.68,1.59,2.55.41.87.72,1.87.9,2.96,1.28,2.97,2.56,5.94,3.84,8.9,1.42,3.3,2.84,6.6,4.27,9.9,2.45,5.56,4.67,10.66,6.07,13.98,2.47,5.85,4.68,12.07,6.58,18.51,6.99.01,36.1.06,36.1.06,2.79,0,5.61.79,8.15,2.27,0,0,.15.09.16.09.15.09.3.18.44.27,4.98,2.97,8.11,8.44,8.11,14.24v43.18c.06,6.57.15,13.5.23,20.27.11,8.73.22,16.98.25,23.97,0,.65.01,1.3.02,1.96.07,3.68.15,7.86-1.84,11.48-2.85,5.86-9.18,9.83-15.77,9.87,0,0-51.95.61-56.67.67-42.32,18.22-88.69,21.08-124.38,21.53h-.04ZM114.38,207.91c-13.24,0-25.99,6.95-34.99,19.06-8.35,11.31-12.24,24.93-10.68,37.35.56,3.35,1.47,6.71,2.7,9.91,0,0,0,.02.01.03,4.77-.06,9.04-.21,13.05-.43,3.29-.17,6.63-.39,9.87-.6,0,0,.03,0,.03,0,.24-.56.72-.99,1.3-1.15,1.39-.39,2.86-.79,4.3-1.19.88-1.92,2.32-3.53,4.12-4.58l.4-1.24c-.12-.43-.1-.89.07-1.3.05-.12.11-.22.17-.33l.47-3.91c.11-.89.79-1.59,1.67-1.73.1-.02.45-.29.67-.78.25-.51.26-1.07.14-1.32l-1.04-2.16c-.43-.9-.14-1.97.69-2.53l6.06-4.06c.18-1.35.76-2.6,1.66-3.57l-1.54-.69c-.76-.34-1.23-1.12-1.18-1.96.06-.83.63-1.55,1.43-1.78l7.98-2.35c.79-3.2,3.37-5.77,6.47-6.4,1.93-2.57,3.84-5.09,5.81-7.63.19-1.58.67-3.12,1.41-4.53-.46-.7-.91-1.38-1.18-1.79-.3-.46-.4-1.02-.28-1.55.09-.4.3-.76.6-1.03-6.43-3.82-13.2-5.75-20.2-5.75Z"/>
    <path class="cls-3" d="M180.8,54.2c7.04,0,13.71,2.04,20.47,3.7,17.52,5,34.27,12.51,51.21,19.03,7.59,3.02,15.18,6.11,22.74,9.22,6.11,2.81,11.82,6.23,15.95,11.83-.02-.02-.03-.04-.05-.06l.16.21c-.04-.05-.07-.1-.11-.15.93,1.01,2.05,2.41,2.05,3.99.01.03.01.04.02.07.09.04.24.12.24.12,0,0,.11.97.12,1.08.49,2.19.41,4.48.74,6.71.12.7.75,7.17.84,7.68,0,0-.08.07-.18.15.18,1.96,3.15,33.68,3.24,34.6.58.78.93,1.62,1.4,2.46,1.62,3.91,4.78,7.02,5.12,11.4.27,2.66-.6,5.7-.29,8.16,4.44,2.23,8.27,5.12,12.13,8.16,3.99,3.08,7.73,6.8,11.03,10.61,3.35,3.79,6.75,7.56,9.63,11.84,2.81,4.29,4.77,8.88,7.01,13.47.58.7,1.09,1.47,1.47,2.31.4.85.65,1.76.78,2.68,2.74,6.34,5.46,12.69,8.2,19.03,2.43,5.5,4.64,10.59,6.06,13.97,2.72,6.44,5,13.03,6.92,19.73.76,0,37.36.07,37.36.07.08,0,.16,0,.25,0,2.54,0,4.99.74,7.14,2,.05.03.1.06.15.08.13.08.26.15.39.24,4.29,2.56,7.18,7.23,7.18,12.56v43.18c.14,15,.42,31.79.49,44.25,0,4.09.49,8.75-1.59,12.51-2.53,5.24-8.17,8.75-14.01,8.79-.02,0-.05,0-.08,0-.42,0-1.8.03-2.19.03h-.03l-6.13.07s-47.85.56-48.65.57c-38.91,16.84-82,20.99-123.98,21.52-41.98-.34-85.06-4.4-124.09-20.93-1,0-51.81-.15-51.81-.15h-3.27s-1.64-.01-1.64-.01c-.14,0-.28,0-.43,0-8.84,0-16.76-7.7-16.75-16.61-.03-.65,0-1.12-.01-1.69v-3.27c.07-3.84.03-15.55.09-19.62-.13-10.18.43-56.42.34-65.4.07-1.43-.05-3.76.15-5.11.87-7.93,8.06-14.4,16.03-14.4.09,0,.19,0,.29,0,0,0,7.28.06,10.98.09-8.37-28.82,4.24-62.36,31.03-76.69,8.83-4.9,18.87-7.41,28.92-7.41,6.78,0,13.56,1.15,19.97,3.48,6.27,2.28,12.15,5.6,17.39,9.71.19.04.91.21,1.48.34l3.57-7.22.08-.15.14-.11c2.19-1.75,2.7-5.4,1.13-7.72l.12-.34.9-2.62s.32.09.62.18c.55-.86,1.18-1.66,1.89-2.38.84-.86,1.75-1.61,2.69-2.31-.9-.34-1.77-.78-2.61-1.23-3.32-1.39-6.52-2.84-4.48-7.33,3.49-7.08,10.71-9.41,4.66-17.34-.43.31-.87.62-.87.62,0,0-.51-.47-.93-.86-.92.4-1.89.84-2.46,1.07.57-.93,1.6-2.25,2.18-3.54-.05-.13-.29-.7-.5-1.23-.23.28-.5.49-.75.49-.24,0-.45-.18-.59-.63-.16-.35,0-.79.19-1.15,0,0,.08-.19.2-.46-.85-.67-2.06-1.62-2.06-1.62,0,0,1.61.16,2.64.27.12-.27.2-.47.2-.47.08.23.13.41.18.51.06,0,.18.02.22.02.09-.11.25-.36.42-.6-.05.21-.07.43-.08.64,0,0,.01,0,.01,0,0,0,0,0,0,0,.03,0,.08-.02.14-.05l.05-.12c.16-.17.32-.38.42-.59.02-.13.03-.26.02-.39h0c-.05,0-.11.02-.19.08-.12.08-.26.25-.38.43.08-.39.23-.74.5-.84,0,0,0,0,0,0,0,0,.01,0,.02,0-.13-.51-.42-1.06-.7-1.65,0,0,.76-.47,1.32-.82.85-3.88,2.33-10.91,2.94-13.61.33-1.48.64-2.98.94-4.52.01-.11.05-.4.05-.4,0,0,.55-4.39.58-4.58-.04-1.47.02-2.85.3-4.3.09-.42.22-.86.4-1.32.03-.2.52-4.1.77-6.08,0,0,0-.01,0-.02,0-.02,0-.03,0-.05.03-.24.08-.62.1-.76-.06-.07-.11-.15-.15-.23-.07-.11-.11-.24-.15-.32.11.02.23.03.36.05,0,0,0-.03,0-.03-.14-.02-.28-.04-.39-.06,0,0,.01.02.02.03-.3-.04-.51-.08-.51-.08-.28-.05-.35-.06-.31-.06.08,0,.63.07.7.07.05-.04.12-.11.2-.19-.12-.09-.21-.2-.28-.32-.09,0-.14,0-.14,0h.14c-.03-.06-.04-.13-.05-.2-.02,0-.04,0-.06,0-.05,0-.17-.02-.22-.03,0,0,0,0,0,0,.01,0,.11,0,.27.01,0,0,0,0,0-.01-.01,0-.03,0-.04,0,.01,0,.03,0,.04,0,0-.03-.02-.06-.02-.1-.1-.53.32-1.2.91-1.25l2.55-20.19,1.36-10.78c.88-5.58,1.32-17.53,6.18-20.79.57-.39,1.42-.45,2.04-.55.55-.03,1.1-.04,1.65-.04M158.6,151l.09-.2s0,0,0,0c0,0-.01,0-.02-.01-.02.03-.04.05-.06.08,0,.05,0,.09,0,.14M158.11,151.79s.06-.04.11-.13c.1-.15.22-.45.31-.72-.2.27-.4.54-.43.81,0,.02,0,.04.01.04M70.1,276.27c4.83-.05,9.66-.18,14.49-.45,4.07-.21,8.13-.49,12.2-.75-.22-.42-.42-.8-.57-1.07,1.7-.48,3.51-.97,5.25-1.45.71-2.14,2.27-3.91,4.28-4.86l.89-2.77c-.08.04-.12.09-.13.09,0,0,0,0,0-.01,0-.03,0-.14-.01-.25-.01-.07-.04-.13-.06-.17.03.03.09.08.16.11l.6-4.91c.94-.15,1.76-1,2.18-1.93.45-.94.55-2.15.11-3.04l-1.03-2.14,1.92-1.29,4.97-3.33c-.06-1.41.51-2.79,1.55-3.67.19-.7.51-1.36.93-1.96l-3.49-1.56c2.14-.63,6.26-1.84,9.18-2.7.23-3.05,2.73-5.89,5.8-6.1,2.2-2.92,4.4-5.84,6.64-8.73.13-1.92.77-3.77,1.84-5.35-.65-.99-1.46-2.23-1.87-2.84.57-.34,1.52-.9,2.42-1.43-.48-.34-.97-.67-1.4-.93-7.32-4.7-15.03-6.86-22.57-6.86-13.96,0-27.34,7.41-36.59,19.87-8.2,11.11-12.77,25.16-11.06,38.79.58,3.49,1.5,6.96,2.82,10.38.17.45.37.88.55,1.33M166.38,108.72h0M106.41,264.54s0,0,0,0c0,0,.01.02.03.04-.02-.02-.03-.04-.03-.04M180.8,50.2h0c-.62,0-1.24.01-1.84.04-.14,0-.27.02-.4.04l-.23.03c-.83.11-2.21.3-3.48,1.17-5.49,3.7-6.57,12.76-7.43,20.05-.15,1.28-.3,2.49-.44,3.42,0,.04-.01.08-.02.13l-1.36,10.78-2.34,18.54s-.07.09-.11.14c-.31.41-.55.86-.73,1.33-.14.24-.26.49-.35.76-.28.49-.45,1.04-.5,1.63,0,.1-.11,1.6.86,2.83l-.23,1.82-.29,2.33c-.16.46-.29.93-.4,1.43,0,.03-.01.05-.02.08-.3,1.5-.42,3.02-.39,4.87-.13,1.02-.54,4.29-.54,4.29l-.03.27c-.25,1.31-.54,2.68-.9,4.29-.33,1.45-.9,4.14-1.51,6.98-.37,1.73-.75,3.49-1.07,5.01-.89.65-1.36,1.38-1.59,2.07-1.48.12-2.8,1.07-3.38,2.49-.67,1.65-.16,3.54,1.24,4.64l.1.08c.03.52.15.98.29,1.36.11.32.24.61.4.89-.13.2-.26.4-.38.6-.9,1.48-.74,3.36.38,4.68.78.91,1.9,1.4,3.04,1.4.51,0,1.03-.1,1.52-.3.12-.05.26-.11.42-.18.15.06.29.1.44.14.6,1.51-.18,2.48-2.22,4.98-1.3,1.6-2.91,3.58-4.15,6.1-.02.04-.04.08-.06.12-1.13,2.51-1.3,4.83-.48,6.9.81,2.07,2.39,3.39,4.05,4.34-.82.47-1.48,1.22-1.81,2.18l-.9,2.62-.12.35c-.41,1.19-.23,2.5.47,3.55.41.6.23,1.91-.31,2.34l-.13.11c-.46.37-.83.83-1.09,1.35l-.08.15-1.72,3.48c-4.94-3.5-10.23-6.28-15.78-8.29-6.77-2.47-13.95-3.72-21.33-3.72-10.84,0-21.5,2.73-30.83,7.9-26.39,14.13-40.5,46.15-34.24,76.16l-5.61-.04h-.21c-.07,0-.2,0-.32,0-9.92,0-18.88,8.02-19.99,17.89-.16,1.13-.16,2.47-.16,3.76,0,.63,0,1.23-.02,1.66,0,.08,0,.16,0,.24.04,4.12-.06,16.22-.16,29.03-.12,15.12-.25,30.76-.18,36.32-.03,2.04-.03,5.92-.04,9.68,0,3.91,0,7.95-.04,9.88,0,.02,0,.04,0,.05v3.27s0,.04,0,.05c0,.17,0,.33,0,.49,0,.36,0,.76.01,1.25.03,5.26,2.3,10.5,6.25,14.4,3.94,3.89,9.23,6.12,14.5,6.12.16,0,.31,0,.47,0h1.58s3.27.01,3.27.01c0,0,44.41.13,51.01.15,42.96,18,89.27,20.65,124.87,20.93h.03s.03,0,.05,0c35.78-.45,82.23-3.31,124.78-21.53,6.35-.07,47.85-.56,47.85-.56l6.1-.07h.01c.21,0,.66,0,1.12-.01.43,0,.86-.01,1.07-.01.02,0,.04,0,.06,0h.04c7.32-.05,14.35-4.45,17.53-10.95,2.22-4.08,2.13-8.51,2.06-12.44-.01-.65-.02-1.28-.02-1.91-.04-7.04-.14-15.32-.25-24.09-.08-6.71-.17-13.64-.23-20.2v-43.14c0-6.48-3.48-12.59-9.08-15.96-.13-.08-.25-.16-.38-.23l-.06-.03s-.07-.04-.1-.06c-.04-.03-.08-.05-.12-.07-2.84-1.65-5.99-2.52-9.11-2.52-.09,0-.18,0-.28,0l-34.34-.06c-1.83-6.01-3.92-11.81-6.23-17.29-1.4-3.31-3.62-8.43-6.09-14.03-1.42-3.28-2.84-6.59-4.27-9.9-1.24-2.89-2.49-5.78-3.73-8.66-.22-1.17-.56-2.26-1.03-3.24-.44-.94-1-1.86-1.69-2.75-.41-.85-.81-1.7-1.22-2.55-1.72-3.63-3.5-7.38-5.85-10.97,0-.01-.02-.03-.03-.04-2.86-4.26-6.17-7.99-9.37-11.61l-.58-.66c-3.77-4.36-7.68-8.11-11.58-11.13-3.22-2.53-6.68-5.17-10.59-7.39.03-.4.08-.82.12-1.25.15-1.48.33-3.16.16-4.87-.3-3.73-2.02-6.58-3.53-9.1-.73-1.21-1.41-2.35-1.88-3.48-.05-.13-.12-.26-.18-.39-.12-.21-.22-.43-.33-.64-.2-.4-.42-.82-.68-1.27l-1.27-13.56-1.78-18.97c.1-.48.12-.98.04-1.48-.04-.32-.21-1.88-.34-3.13-.31-2.93-.43-4.06-.5-4.54-.11-.77-.17-1.6-.23-2.48-.1-1.37-.19-2.79-.51-4.28-.04-.32-.1-.88-.1-.88-.06-.5-.21-.97-.43-1.4-.53-2.31-2.01-4.04-2.77-4.87-4.98-6.66-11.89-10.4-17.37-12.92-.05-.02-.1-.04-.15-.06-8.37-3.44-15.82-6.47-22.78-9.24-4.67-1.8-9.38-3.69-13.93-5.52-12.17-4.9-24.76-9.96-37.67-13.64-.05-.01-.09-.03-.14-.04-1.04-.26-2.09-.52-3.13-.79-5.83-1.49-11.86-3.03-18.3-3.03h0ZM70.69,263.99c-1.48-11.9,2.28-24.96,10.32-35.84,8.61-11.59,20.78-18.24,33.38-18.24,6.08,0,11.99,1.54,17.6,4.57-.16.99.05,2.02.61,2.86.14.22.34.51.56.84-.49,1.14-.84,2.34-1.03,3.57-1.73,2.25-3.44,4.5-5.07,6.67-3.12.92-5.71,3.41-6.88,6.55l-1.08.32-5.88,1.73c-1.61.47-2.75,1.9-2.86,3.57-.1,1.45.6,2.83,1.79,3.61-.23.5-.41,1.01-.54,1.55l-3.45,2.31-1.92,1.29c-1.65,1.11-2.24,3.26-1.38,5.06l.81,1.68c-1.31.54-2.25,1.76-2.43,3.21l-.43,3.52c-.03.06-.06.12-.08.18-.26.62-.35,1.28-.28,1.93l-.03.08c-1.58,1.07-2.89,2.51-3.82,4.19-1.17.32-2.34.64-3.45.96-.73.2-1.37.6-1.87,1.15-2.93.19-5.93.38-8.88.53-3.59.21-7.4.34-11.57.41-.94-2.66-1.65-5.43-2.12-8.24h0Z"/>
  </g>
  <path class="cls-3" d="M59.5,338.97c-5.35-1.97-10.76,4.74-9.86,10.61s5.79,10.17,10.82,12.91c5.03,2.74,10.6,4.56,15.01,8.3-6.9,18.04,15.02-10.44,8.12,7.6,5.27,1.66,14.25,3.84,16.47-1.45-.81,3.94,11.16-3.94,10.35,0,3.76-3.51,25.05,4.96,28.81,1.45,23.27-9.72,131.79-79.52,31.28,9.22-5.46,4.82.99,5.21,8.07,4.33,32.25-4,12.48,5.47,44.79,8.96,45.07,4.88,81.54,2.33,119.29-23.96,11.12-7.74,22.46,15.58,28.44,3.06,7.63-15.96,7.46-34.74,5.5-52.47-2.1-18.96-6.06-37.69-11.81-55.81-2.78-8.77-5.98-17.38-9.17-26-5.97-16.09-12.23-32.66-23.77-44.97-7.51-8.01-16.91-13.8-24.71-21.5-12.05-11.9-19.76-27.82-30.7-40.85-13.1-15.61-30.87-26.83-50.15-31.67-18.55-4.65-41.33-1.69-51.61,15.17-8,13.11-5.89,29.99-6.24,45.55-.62,27.54-10.64,54.48-27,75.9-8.26,10.82-18.18,20.28-29.34,27.72-5.02,3.34-11.13,4.85-13.41,10.56-2.76,6.88-4.73,13.83-8.16,20.45-7.53,14.53-18.19,27.3-31.05,36.88Z"/>
  <path class="cls-3" d="M160,188.76l.5-2.24c-.3.87-.6,1.74-.91,2.62,1.56,2.66.87,6.52-1.51,8.41-1.28,2.58-2.57,5.17-3.85,7.75l-2.69-.63c.17.73.34,1.46.5,2.19-2.8,1.05-5.6,2.09-8.39,3.14.46.63.92,1.26,1.38,1.88-1.93,1.26-3.85,2.51-5.78,3.77l1.73,2.4c-1.32,1.65-2.04,3.83-1.98,5.99-2.49,3.46-4.97,6.91-7.46,10.37-2.72-.64-5.41,2.85-4.24,5.51l-4.61,1.44c.73.31,1.46.63,2.19.94-2.15-.6-4.56,1.47-4.43,3.81-1.29.1-1.82,2.26-.74,3-2.24,1.5-4.47,3.01-6.71,4.51,1.72,3.41-.72,8.26-4.37,8.7,1.71.65,2.06,3.54.55,4.61.28.8.55,1.61.83,2.41-2.67-.05-5.22,2.12-5.74,4.87-1.45.31-2.9.61-4.35.92.32.72.65,1.43.97,2.15-.7.98-1.4,1.96-2.1,2.95,53.29-2.05,106.58-4.11,159.87-6.16-3.38-7.48-2.26-16.2-2.73-24.46-.54-9.43-3.22-18.56-5.89-27.58-5.81-19.67-11.63-39.34-17.44-59.01-1.66-5.61-3.45-11.45-7.41-15.6-7.43-7.77-20.45-6.66-28.87-.08-11.27,8.81-15.61,24.46-27.42,32.64-3.59,2.49-7,4.52-8.9,8.81Z"/>
  <path class="cls-3" d="M162.51,146.71l-1.09-1.47c.51,1.01,1.04,2.14.8,3.26s-1.68,1.94-2.47,1.14c.59,0,1.14.51,1.23,1.12s-.29,1.26-.84,1.46c.59-.28,1.19-.56,1.78-.84-.04,1.07-.37,2.12-.96,2.99l1.17-.49-1.06,1.76c.54-.39,1.09-.77,1.63-1.16,1.62,2.19,3.33,4.67,3.13,7.44-.34,4.68-7.68,9.19-7.75,13.88-.03,2.49,3.39,3.18,5.47,4.39s4.51,1.56,6.88,1.71c1.51.1,3.07.13,4.52-.35s2.8-1.52,3.32-3.02c-.67.98-1.34,1.95-2.01,2.93,7.69,1.55,15.37,3.1,23.06,4.66-.96-1.64-.39-3.87.81-5.31,1.2-1.45,2.91-2.3,4.55-3.15,1.64-.86,3.32-1.81,4.38-3.37,1.5-2.21,1.47-5.14,1.38-7.85-.42-12.55-.86-25.16-3.24-37.46-.9-4.65-2.35-9.65-6.1-12.29-2.68-1.88-6.09-2.2-9.31-2.04-5.91.29-11.76,2.03-16.93,5.05-2.39,1.39-5.52,3.2-7.23,5.49-.73.97-.79,2.37-1.06,3.55-.42,1.88-.85,3.75-1.27,5.63-.93,4.11-1.85,8.22-2.78,12.33Z"/>
  <path class="cls-3" d="M166.97,126.57l7.34-54.52s1.56-15,5.36-15.78c5.43-1.11,21.42,3.24,29.08,5.7,11.3,3.64,66.42,26.07,66.42,26.07,0,0,17.15,6.89,17.79,17.56.28,4.73,5.01,50,5.01,50l-42.07-13.11s-15.4-6.27-21.6-9.33c-12.14-6-43.2-10-52.3-10.67-5.88-.43-15.03,4.07-15.03,4.07Z"/>
  <path class="cls-1" d="M181.23,112.02s25.28-8.48,36.21-10.64c10.93-2.16,26.84-2.82,33.5-1.63,6.66,1.2,18.25,5.56,20.74,6.78,2.49,1.22-1.39,2.14-1.39,2.14l10.38,4.34s9.48,10.66,4.12,7.1c-5.35-3.56-29.87-12.76-33.63-13.29-3.76-.52,17.07,7.43,17.07,7.43l11.82,5.98s7.67,7.9,7.55,9.34c-.12,1.44-14.19-8.65-14.69-9.27s-21.64-10.42-21.64-10.42c0,0-11.84-2.42-17.29-2.65-5.45-.23-30.83.68-30.83.68,0,0,29.22.79,35.81,1.76,6.59.97,20.08,4.77,24.37,8.75,4.3,3.99,13.07,9.79,13.07,9.79l-8-.73,11.56,7.92-15.19-4.44s-11.22-8.7-13.21-9.29-11.43-2.97-11.43-2.97l11.46,5.81,12.57,9.17,12.71,4.16,3.38,3.91-9.6-3.76,9.99,12.21,17.29,5.39-1.47-14.22-2.32-20.75-3.01-1.19,3.01-2.65-1.54-13.25-17.52-11.14s-2.83-1.54-7.62-3.16c-2.69-.91-6-1.85-9.78-2.55-10.49-1.95-29.8-2.11-29.8-2.11,0,0,29.1,2.7,36.71,5.87s15.05,9.44,17.34,11.89c2.3,2.44,6.2,8.87,6.2,8.87,0,0-11.71-8.37-21.5-10.92-9.79-2.54-26.81-6.19-35.21-4.95-8.4,1.24-20.79,3.66-31.57,8.87s-28.71,10.74-30.62,11.31c-1.9.57-1.66,6.35-1.66,6.35l13.64-9.88Z"/>
  <path class="cls-1" d="M205.77,111.26l24.89,5.34s-8.69.34-14.79-.95c-6.1-1.3-10.1-4.39-10.1-4.39Z"/>
  <path class="cls-1" d="M213.93,87.06l-12.96,4.18s1.37-3.09,3.2-3.88,11.17-.54,11.17-.54"/>
  <path class="cls-1" d="M188.14,77.83c10.31,0,28.94,4.59,28.94,4.59l8.61,2.18s-19.2-3.85-24-3.39c-4.8.47-15.95-.72-17.93-1.16-1.98-.44-7.2-1.63-8.47-.3s2.26-2.52,6.78-2.52,6.07.59,6.07.59Z"/>
  <path class="cls-1" d="M175.03,98.72c3.65-.89,14.38-1.93,18.76-1.48,4.38.44,14.82-2.37,20.47-2.81,5.65-.44,12.56,0,12.56,0,0,0-12,.84-17.79,2.05s-14.68,3.73-17.5,3.14c-2.82-.59-17.22.89-17.93,1.04s-3.65,3.79-4.15,7.5.82-6.08,1.06-7.86c.24-1.78,4.53-1.57,4.53-1.57Z"/>
  <path class="cls-1" d="M228.75,84.02c-5.31-8.83-14.58-14.38-21.95-20.88,8.95,4.41,16.71,12.15,21.95,20.88Z"/>
  <path class="cls-1" d="M231.85,95.54c-3.73-.88-7.05-3.02-10.46-4.82-3.41-1.81-8.15-2.7-11.94-2.21,2.47-.52-.77-1.73,6.68-1.61,5.37,2.49,10.52,5.77,15.72,8.64Z"/>
  <path class="cls-1" d="M260.94,86.73c2.3.69,4.65,1.95,6.64,2.7,3.76,1.41,7.51,2.9,11.04,4.89,6.7,3.78,12.37,9.46,14.37,17.37,2.02,8,.52,16.5-.94,24.45-.64,3.48-1.37,7.15-3.64,9.77-2.65,3.05-6.93,4.03-10.83,3.55s-7.55-2.2-11.16-3.84c-20.44-9.3-41.74-16.54-63.49-21.58,4.73.23,9.47.46,14.2.69-3.85.28-7.71.57-11.56.85,5.33-.41,10.74.26,15.83,1.97-12.74-2.52-25.61-4.31-38.53-5.35,3.84-3.13,9.07-3.47,13.94-3.43,10.88.08,21.89,1.39,32.01,5.57-1.24-.9-2.48-1.8-3.72-2.69,6.82-.67,13.78.29,20.21,2.79.96.37,1.96.79,2.98.66s2.04-1.02,1.94-2.09c-.1-1.12-1.25-1.74-2.26-2.13-4.75-1.81-9.79-2.74-14.84-2.73,6.14,1.2,12.27,2.4,18.41,3.6,1.78.35,3.92.57,5.1-.86,1.04-1.26.74-3.31-.26-4.61-1-1.3-2.52-2.02-4.01-2.64-10.02-4.18-20.99-5.82-31.73-4.76-2.34.23-5.04.86-6.04,3.1,4.56,1.36,9.11,2.72,13.67,4.08-7.09,2.53-14.63-1.25-21.76-3.67-5.73-1.94-12.21-2.97-17.62-.2,15.94-4.67,32.46-6.7,48.9-8.71-.48-2.38-2.62-4.07-4.87-4.65s-4.6-.27-6.9.05c16.69-1.86,33.82.7,49.36,7.38,4.98,2.14,10.08,4.75,15.44,4.29-3.3-16.19-21.8-18.84-34.71-19.46-1.81-.09-5.22.69-4.18-1.87.67-1.65,4.05-2.88,5.57-3,1.1-.08,2.26.12,3.44.48Z"/>
  <path class="cls-1" d="M224.95,76.64c7.21,4.9,14.57,9.86,22.86,12.19,5.2,1.46,10.62,1.84,15.94,2.75s10.7,2.44,14.99,5.87c.81-3.79-1.46-8.03-4.96-9.28,6.64,2.21,12.69,6.3,17.35,11.73.54.63,1.1,1.36,1.09,2.21,0,1.49-1.77,2.38-3.16,2.04s-2.44-1.47-3.52-2.44c-6.17-5.59-14.64-7.36-22.75-8.22-8.11-.85-16.45-1.03-24.03-4.18-4.45-1.85-8.46-4.67-12.12-7.87-2.4-2.09-8.91-6.76-9.45-10,2.69,1.43,5.22,3.48,7.77,5.2Z"/>
  <path class="cls-1" d="M267.47,146.77c9.76,4.26,19.97,9.1,30.46,7.68-2.45-4.88-6.8-8.47-11.52-10.89-4.72-2.42-9.86-3.8-14.93-5.25-14.92-4.26-29.65-9.25-44.75-12.72-7.42-1.71-14.93-3.04-22.5-3.72-3.82-.35-7.65-.53-11.48-.5-3.51.02-8.05-.35-11.37.83,1.57,1.33,5.91,1.19,8.07,1.54,2.86.47,5.71.97,8.55,1.52,5.77,1.1,11.51,2.36,17.21,3.78,11.41,2.83,22.68,6.28,33.76,10.33,6.24,2.28,12.41,4.75,18.51,7.41Z"/>
  <path class="cls-1" d="M174.27,127.33l12.56-1.27c.45,1.4-.48,2.95-1.71,3.68s-2.68.87-4.07,1.1c-4.64.76-9.03,2.68-13.34,4.65,9.3-3.65,19.54-4.61,29.31-2.74-2.14,2.07-5.46,1.59-8.38,1.6-5.17.02-10.32,2.08-14.18,5.7,6.23-4.14,14.28-5.12,21.25-2.57.98.36,1.98.81,2.7,1.6s1.11,2,.7,3.01c-.54,1.35-2.26,1.77-3.61,1.38s-2.46-1.37-3.65-2.15c-1.19-.78-2.64-1.38-3.97-.91.77.47,1.36,1.25,1.63,2.14-2.04-.08-4.08-.16-6.12-.24.33-.17.79.04.89.41-1.46,0-2.92.02-4.37.03.17-.1.41-.05.53.11-1.56,2.78-4.85,4.37-7.88,3.8,1.2.59,2.51.96,3.83,1.08-1.29.85-2.74,1.73-4.25,1.5-1.51-.24-2.75-2.25-1.78-3.48-1.08,1.08-.78,3.01-.03,4.37s1.88,2.52,2.32,4.02c.46,1.57.1,3.31-.64,4.76-.74,1.45-1.83,2.67-2.9,3.86,4.86.77,9.6,2.31,14.02,4.56-.59-.76-1.2-1.54-1.48-2.47s-.14-2.07.57-2.71c.35-.31.79-.47,1.24-.53,1.49-.21,2.91.6,4.22,1.37-2.15-1.91-3.24-5.05-2.77-7.97.06-.4.2-.86.56-1.01.43-.18.88.18,1.3.4,1.74.91,3.72-.63,5.67-.8,1.24-.11,2.44.36,3.64.7,6.02,1.7,12.41.15,18.36-1.78-6.68,1.47-13.71,1.19-20.26-.81-1.95-.6-3.87-1.34-5.89-1.59-2.02-.24-4.19.08-5.77,1.42-.34-.68-.04-1.56.5-2.06s1.29-.71,2.01-.83c7.44-1.26,14.87,4.5,22.22,2.78-.81.31-1.62.62-2.44.94,4.8,0,9.59-.43,14.33-1.25-.73.21-1.16-.97-.82-1.68s1.05-1.17,1.39-1.88c.58-1.19-.03-2.63-.78-3.72-1.64-2.38-3.96-4.24-6.59-5.26,2.16.79,4.32,1.58,6.49,2.37-2.68-.46-5.13-2.2-6.53-4.64,1.3-.29,2.67-.2,3.93.26-3.11-1.32-6.09-2.98-8.86-4.96,1.53.24,3.06.48,4.59.72-3.78.74-7.82-.17-10.98-2.47,1.21.15,2.42.3,3.64.45l-2.47-1.74c1.31-.95,2.98-1.34,4.55-1.05.62-.83.27-2.13-.49-2.83s-1.79-.94-2.78-1.14c-2.84-.58-5.71-1.01-8.59-1.3-2.02-.2-6.12-1.24-7.96-.19-.61.35-.81,1.15-1.38,1.56-.94.68-2.37.74-3.46,1.03-2.46.66-5.34,2.44-7.81,2.69Z"/>
  <path class="cls-1" d="M168.15,150.89c-1.18-.58-2.04-1.83-2.2-3.19-.11-.98.1-2.45.98-2.93-.19,2.2-.13,4.27,1.21,6.12Z"/>
  <path class="cls-1" d="M165.29,155.3c-.32-1.07-.13-2.29.5-3.19-.8-.28-1.68.46-1.86,1.32s.16,1.76.61,2.51,1.03,1.42,1.41,2.21c.38.79.52,1.79.09,2.55.81-1.43,2.86-4.93,2.49-6.63-.52-2.42-3.24-.57-3.24,1.24Z"/>
  <path class="cls-1" d="M176.21,167.65c3.2,1.15,5.45,4.08,7.64,6.78,2.2,2.69,4.79,5.44,8.13,5.95-2.34-1.72-3.52-5.01-2.84-7.92.68-2.91,3.18-5.26,6.01-5.64-1.14-1.83-2.55-3.48-4.16-4.86,3.47,2.18,6.68,4.82,9.54,7.84-1.18-4.85-4.51-9.08-8.82-11.22,2.53,1.61,5.06,3.21,7.59,4.82,1.82-2.29,1.83-5.95.03-8.25,6.55-.21,13.07-1.2,19.4-2.94-.02,4.51,1.2,9.02,3.47,12.84-2.84,1.99-4.95,5.1-5.82,8.56-1.09-1.31-2.19-2.63-3.28-3.94-.34,1.5-.28,3.1.18,4.57l-1.5-.62-.39,1.86-.75-1.48.25.93-2.04-.72,1.1,2.2c-1.23-.81-2.46-1.62-3.69-2.43.49,1.32.99,2.65,1.48,3.97-1.22-.97-2.44-1.94-3.66-2.9l4.34,4.94c-1.45-.72-2.9-1.44-4.35-2.16.41.85.83,1.7,1.24,2.55-.57-.06-1.12-.38-1.46-.86.59,1.18,1.17,2.35,1.76,3.53-1.3-.43-2.48-1.22-3.4-2.27.79,1.6,1.57,3.21,2.36,4.81-1.47-1.56-3.15-2.9-4.97-3.96,1.23.94,2.18,2.29,2.66,3.81-.99-.7-1.98-1.39-2.96-2.09-.21.88-.18,1.83.08,2.7-1.17-.98-2.35-1.96-3.52-2.93.37.97.74,1.93,1.1,2.9-.45-.42-.91-.84-1.36-1.26l-.06,1.98c-.97-.72-1.95-1.44-2.92-2.15l.09.86c-2.34-1.35-4.5-3.03-6.4-4.99.69.75,1.37,1.5,2.06,2.25l-4.9-4.77c.39.9.23,1.25.63,2.15-.87-.3-.88-.1-1.97.26-.74.22-1.26-.07-1.3.41-1.25-.18,1.35-.17-2.08,2.1,1-1.02,1.68-2.37,1.93-3.81.51.18,1.01.37,1.52.55.32-.95.84-2.06,1.79-2.12.87-.06,3.63,2.98,0,0-1.56,2.34-5.25,5.38-5.5,4.24-.34-.24-.72.52-.34.67-.39-.38-.78-.76-1.17-1.15-.13.41-.27.83-.4,1.24-1.22-.38-2.65.24-3.27,1.4.04-.49.08-.99.13-1.48-.83.97-2.53.83-3.22-.25-.59-.5-1.17-1.01-1.76-1.51,1.7.36,3.43.72,5.15.53,1.72-.19,3.47-1,4.4-2.54,1.34-2.22.54-5.34-1.29-7.13-1.83-1.79-4.25-2.68-6.75-2.84,0,0-2.38-.3-2.11-.26.67-2.08,6.82-1.29,8.35-.73Z"/>
  <path class="cls-1" d="M164.4,196.11c.97-.45,1.83-1.5,2.39-2.9-2.08,4.21-4.98,7.26-8.14,8.57,2.87-.62,5.61-2.86,7.66-6.29-.41,1.53-1.09,2.84-1.94,3.72,1.91-1.24,3.6-3.38,4.83-6.13l-.22,2.75c1.02-1.69,2.83-1.76,3.89-.14-.82,2.65-2,4.99-3.43,6.77,1.64-.91,3.05-2.99,3.8-5.61l2.11,7.55c.26-1.82.52-3.65.78-5.47,1.41,1.5,2.83,2.99,4.24,4.49-.82-1.46-.12-4.36,1.08-4.44-.08-1.13-.16-2.26-.24-3.4,1.16,1.67,2.15,3.68,2.89,5.93-.46.58-1.07-.8-.73-1.57.34-.77,1.09-.65,1.54-.06s.7,1.5,1.01,2.31.75,1.59,1.32,1.66c-.88-1.24-1.76-2.48-2.64-3.72.26,2.63.76,5.19,1.47,7.57-.07-1.39-.15-2.77-.22-4.16,2.01,3.05,4.03,6.09,6.04,9.14-.9-3.3-1.8-6.61-2.7-9.91,1.1.46,2.03,1.92,2.37,3.73-.16-1.09-.33-2.19-.49-3.28,2.87,1.76,5.58,4.31,7.97,7.5-.34-1.69-.68-3.38-1.01-5.07,1.42,1.95,3.12,3.33,4.91,4,.25-1.31-.01-2.85-.64-3.73,3.5,3.66,7.01,7.31,10.51,10.97l-2.25-6.27c2.41,3.81,4.82,7.63,7.23,11.44-.35-1.96-.7-3.91-1.05-5.87.71,1,1.42,2.01,2.13,3.01-.7-1.69-1.39-3.38-2.09-5.06,2.59,2.33,5.17,4.66,7.76,6.99-.6-1.59-1.2-3.18-1.8-4.78,1.18.68,2.35,1.36,3.53,2.04-.3-.68-.6-1.35-.9-2.03.73.64,1.47,1.27,2.2,1.91-1.99-2.87-4.23-5.89-6.85-5.85-1.26.02-2.5.77-3.76.75s-2.7-1.25-2.83-3.36c.02.48.03.97.05,1.45-2.05-1.93-3.95-4.28-5.65-6.99.28,1.77.57,3.54.85,5.3-.91-1.98-1.82-3.96-2.74-5.94l.24,3.1c-1.03-1.57-2.07-3.14-3.1-4.71l1.25,5.55c-3.2-6.32-7.79-10.61-12.67-11.83,1.61,2.51,3.21,5.02,4.82,7.53-1.67-1.59-3.35-3.17-5.02-4.76l.69,2.37c-.9-.72-1.79-1.43-2.69-2.15-.26.96-.52,1.92-.78,2.88l-1.44-3.41-.3,1.83c-1.69.07-3.3-2.28-3.49-5.11l.27,2.98c-1.89-2.29-3.29-5.72-3.88-9.52.32,2.41.63,4.82.95,7.23-.81-1.68-1.62-3.36-2.43-5.05.24,1.39.49,2.78.73,4.16-1.16-1.85-2.11-4.05-2.81-6.47-.29,3.58.13,7.32,1.19,10.47-.72-1.5-1.44-3-2.16-4.5-.28.85-.57,1.71-.85,2.56-.39-1.41-.79-2.82-1.18-4.22-.33.12-.59.67-.58,1.24.03-1.11-.18-2.23-.58-3.11.09.8.19,1.61.28,2.41-1.25-2.24-1.81-5.52-1.45-8.53.24,3.23-.05,6.57-.83,9.55.07-1.05.14-2.1.21-3.16-.67.41-1.34.82-2.01,1.24.1-.7.21-1.39.31-2.09-.77,1.54-1.55,3.07-2.32,4.61.55-1.6.98-3.66.86-5.5-1.33.44-1.69,6.06-3.45,6.89Z"/>
  <path class="cls-1" d="M175.04,177.72c.31.71-.06,1.59-.67,2.04s-1.39.55-2.13.56c-1.58.01-6.64-.89-6.74-3.08,3.2.14,6.32.61,9.54.48Z"/>
  <path class="cls-1" d="M134.04,312.81c4.65-.42,9.24-1.43,13.81-2.44,5.68-1.25,11.36-2.5,17.04-3.76,2.61-.58,5.38-1.15,7.91-.27,1.78.61,3.3,1.9,5.09,2.45,3.33,1.04,7.4-.11,9.62-2.92,22.95-29.1,26.85-47.1,29.67-49.23,2.79,12.74-25.67,59.09-32.65,63.74-6.98,4.64-15.53,5.91-23.79,5.88-4.06-.01-8.15-.3-12.16.38-3.44.58-6.73,1.87-10.08,2.84-13.64,3.94-28.09,2.57-42.17,1.18-6.22-.62-12.45-1.23-18.67-1.85-1.33-.13-2.7-.28-3.87-.95s-2.1-2.02-1.89-3.41c.41-2.77,4.2-2.99,6.14-4.91,2.16-2.14,1.58-5.86,2.72-8.74,1.63-4.1,6-5.53,8.98-8.24,3.17-2.88,2.66-7.37,7.12-8.94.87,1.84-2.19,7.01-4.15,7.56,2.98-.83,5.67-2.74,7.52-5.33-.66,1.45-1.31,2.9-1.97,4.36.78.61,1.56,1.22,2.34,1.84-2.69.77-8.65,4.09-10.68.98,1.11-1.22,2.91-1.08,4.03.13,1.08,1.17,1.43,2.87,1.87,4.44s1.12,3.24,2.52,3.96c.78.4,1.67.44,2.53.48,6.22.26,12.44.53,18.66.79"/>
  <path class="cls-1" d="M203.03,209.19c-.35-.85-1-1.56-1.8-1.96.06-.77-.56-1.44-1.26-1.68s-1.45-.15-2.18-.05c.64-.77-.17-2.12-1.13-2.11-2.61.04-1.61,2.2-.5,3.06,1.82,1.42,4.73,2.14,6.88,2.73Z"/>
  <path class="cls-1" d="M228.71,229.53c-.46,1.66-.41,3.47.15,5.09.5-1.22.68-2.59.51-3.9"/>
  <path class="cls-1" d="M200.88,214.47c.76.1,1.34-.6,1.6-1.4.07-.22.12-.45.13-.67.08-1.02-.16-2.1.2-3.05.3-.79.9-1.43,1.14-2.21-.95.21-1.86,1.12-2.43,2-.42.65-1.66,5.21-.64,5.33Z"/>
  <path class="cls-1" d="M216.37,241.45c-.17,2.52-.35,5.04-.52,7.56-.03.45-.06.9-.25,1.31-.77,1.68-3.41,1.24-4.52,2.7.35,1.46,1.85,2.2,3.06,3.01s2.36,2.41,1.62,3.7c-.24.41-.63.7-.9,1.08s-.4.97-.08,1.31c-1.46-1.89-1.46-4.86,0-6.76.63-.82,1.47-1.42,2.17-2.17s1.29-1.74,1.18-2.79-1.17-1.99-2.1-1.59c1.08-.97,2.21-2,2.69-3.4s.04-3.27-1.29-3.8c.2.19.56.13.71-.11s.03-.61-.23-.71c-1.18,1.07-2.92,1.4-4.39.84-1.05-.4-1.92-1.26-2.41-2.3.34.41,5.18,3.48,5.27,2.13Z"/>
  <path class="cls-1" d="M197.43,209.14c-.39.83-.41,2.03.36,2.5.88.54,2.02-.43,2.13-1.49.11-1.06-.45-2.05-.98-2.96.49.29.98.58,1.47.87.16.1.05,1.79.04,2.03-.49-1.36-.51-2.96-1.35-4.14-.4,1.03-1.17,2.1-1.68,3.18Z"/>
  <path class="cls-1" d="M207.43,206.39c-.46,1.66-.41,3.47.15,5.09.5-1.22.68-2.59.51-3.9"/>
  <path class="cls-1" d="M206.46,209.95c.36-.71-.05-1.53-.67-2.06-.17-.15-.36-.27-.55-.37-.88-.44-1.92-.6-2.65-1.29-.6-.57-.95-1.39-1.56-1.91-.15,1.01.33,2.23.91,3.09.43.64,4.04,3.49,4.52,2.53Z"/>
  <path class="cls-1" d="M218.07,309.72c-2.73,22.88-15.79,44.17-34.51,56.25,15.81-4.57,27.5-18.77,35.3-33.91-6.37,10.6-12.74,21.2-19.1,31.8,10.18-5.49,17.9-15.79,20.59-27.47-1.77,9.29-4.88,18.29-9.21,26.6,11.65-12.06,17.94-29.6,16.76-46.73,4.89,5.02,4.97,14.26.16,19.37,2.55-3.93,5.1-7.85,7.65-11.78-2.38,8.18-2.42,17.08-.12,25.28.23-7.57.45-15.14.68-22.71.86,2.69,2.4,5.13,4.43,7-2.48-7.18-3.23-15.01-2.16-22.56,5.33,8.2,14.04,13.88,23.41,15.26-4.5-3.49-9.84-5.69-14.22-9.35-4.38-3.66-7.81-9.6-6.28-15.25,1.14-4.22,4.68-7.14,7.38-10.48,7.6-9.4,8.6-24.04,2.36-34.49-1.52-2.55-3.44-4.88-4.55-7.66-1.11-2.78-1.25-6.27.62-8.55-.76,8.32,3.39,16.92,10.22,21.22-1.25-3.44-2.51-6.87-3.76-10.31,3.68,2.47,7.9,4.43,12.25,4.14,4.36-.29,8.76-3.39,9.54-7.9.78-4.51-3.43-9.5-7.63-8.27,4.87-6.34,8.66-13.58,11.15-21.29.1,3.59.2,7.17.3,10.76,2.07-.23,4.14-.46,6.21-.69-1.16,6.78,1.87,14.14,7.36,17.9-4.82-6.8-3.26-17.61,3.27-22.6,7.88-.06,15.75-.12,23.63-.18,2.27-.02,4.62-.05,6.7-1.01,2.69-1.25,4.64-3.92,7.42-4.96,4.6-1.71,9.83,2.07,11.32,6.95,1.49,4.87.07,10.24-2.23,14.76-.03-.76-.07-1.53-.1-2.29-20.25-8.36-45.54-.04-57.62,18.95.8-2.96,1.61-5.93,2.41-8.89-4.8,6.68-11.2,12.08-18.44,15.59,1.97-2.12,3.95-4.23,5.92-6.35-4.92.74-9.13,5.14-9.84,10.3,5.47-3,11.35-5.19,17.4-6.48-6.53,6.77-11.4,15.29-14.02,24.52-5.96,4.26-10.17,11.12-11.4,18.57,4.14-2.8,8.29-5.59,12.43-8.39l-14.68,15.69c3.03-1.59,6.06-3.19,9.09-4.78-2.17,4.94-5.27,9.43-9.07,13.13,11.16-4.83,17.9-16.66,23.2-28.03,5.3-11.38,10.38-23.63,20.16-31.06-7.5,12.62-10.51,27.51-14.47,41.79-3.96,14.28-9.44,28.9-20.3,38.46,3.32-3.32,6.64-6.65,9.96-9.97-4.75,5.23-8.57,11.38-11.22,18.04,20.43-13.09,30.54-38.38,36.22-62.79,2.49-10.69,4.52-21.89,10.6-30.86,6.08-8.97,17.67-15,27.26-10.52-14.26,2.71-25.93,16.43-26.86,31.61,13.38-13.15,33.91-17.68,51.2-11.29-20.2-.83-40.61,6.44-56.15,20.02,7.54-3.03,15.08-6.07,22.62-9.1-7.73,5.66-15.46,11.33-23.19,16.99,17.27-10.35,37.52-15.14,57.35-13.57,1.11,3.72-.59,7.85-3.28,10.54-2.68,2.69-6.2,4.23-9.63,5.72-16.4,7.1-32.79,14.2-49.19,21.3,1.83,2.84,3.66,5.68,5.5,8.53,8.29-9.25,22.05-12.58,33.37-8.07-9.67,1.04-19.64,2.17-28.13,7.13-9.17,5.34-16.08,14.85-26.06,18.22-3.61,1.22-7.47,1.57-10.95,3.12-3.49,1.55-6.71,4.82-6.65,8.8-10.57-1.55-21.65.98-30.65,7-3.01,2.01-5.86,4.44-9.28,5.51-4.48,1.41-9.28.31-13.92-.3-11.75-1.54-21.94,1.1-33.14,4.19-2.24-3.33.43-5.36,2.88-6.83,3.51-2.11,6.39-4.78,9.44-7.56,4.38-4,8.35-8.49,11.85-13.35,6.88-9.58,11.9-20.64,14.48-32.33Z"/>
  <path class="cls-1" d="M326.09,308.07c4.72-2.83,10.62.32,16.03-.12,3.78-.31,7.21-2.37,10.42-4.51,3.2-2.14,6.42-4.44,10.12-5.34,3.7-.89,8.07-.02,10.3,3.2-1.92-3.04-5.13-5.16-8.58-5.65-5.77-.82-10.92,4-16.3,5.65-7.33,2.25-14.66,4.5-21.99,6.75Z"/>
  <path class="cls-1" d="M153.36,333.26c-.91,2.66-1.61,5.5-3.38,7.63-1.7,2.04-4.2,3.15-6.12,4.96-2.61,2.44-4.01,5.97-5.33,9.38-1.72,4.43-3.43,8.86-5.15,13.29-.81,2.08-1.63,4.2-2.97,5.95-3.14,4.1-8.43,5.47-13.33,6.59,3.49-.42,6.89-1.56,9.97-3.33-4.79,2.37-10.15,3.45-15.44,3.11,10.48-9.9,8.93-28.46,18.43-39.4,1.73-1.99,3.82-3.72,5-6.11,1.32-2.67,1.34-5.8,1.74-8.77,1.32-9.7,7.35-18.57,15.66-23.04-1.09.5-1.98,1.44-2.44,2.59,1.91-.03,3.82-.67,5.38-1.83l-1,2.77c.39-.81,1.79.35,1.13.94,3.69-1.32,7.57-2.04,11.47-2.13-.03.66-.07,1.31-.11,1.97,3.36.47.09,3.46-.96,4.75-1.7,2.1-3.37,4.23-4.94,6.44-3.1,4.38-5.85,9.08-7.62,14.24Z"/>
  <path class="cls-1" d="M165.17,329.58c1.27-3.85,3.26-7.44,5.81-10.5-8.02,6.29-14.82,14.28-19.87,23.35,4.56,1.91,9.45,2.97,14.35,3.1-1.1.58-2.19,1.16-3.29,1.74,8.48-.01,16.96-1.51,24.97-4.43.94-2.47,1.87-4.93,2.81-7.4-3.08.39-6.16.79-9.24,1.18,6.99-2.09,29.46-11.65,32.93-18.36,2.53-4.88-13.95-7.6-11.53-12.57,17.86-36.6-.32-1.78-8.74,1.07-5.76,1.95-9.58,7.75-14.38,11.63-2.4,1.94-4.79,3.88-7.19,5.82-1.37,1.1-6.09,3.72-6.64,5.37Z"/>
  <path class="cls-1" d="M131.84,376.93c5.16-.56,10.6-1.24,14.76-4.51,1.52-1.2,2.81-2.7,4.41-3.77,5.37-3.59,12.33-1.4,18.68-.98,2.81.18,5.86-.1,8.01-2,4.69-4.15,2.54-13.28,7.38-17.23-7.13,2.28-14.25,4.56-21.38,6.83-1.76.56-3.59,1.16-4.96,2.45-2.52,2.36-3.19,6.7-6.26,8.18,1.95-4.33,3.89-8.66,5.84-12.99-6.45,2.16-12.2,6.57-16.13,12.36,1.23-3.53,5.47-11.24,4.71-14.72-3.24,1.29-6.57,8.97-8.34,12.15-2.55,4.57-4.79,9.33-6.7,14.24Z"/>
  <path class="cls-1" d="M204.34,128.25c-.57,1.07-.04,2.49.88,3.26s2.11,1.04,3.25,1.27c3.94.81,7.9,1.48,11.86,2.16-1.69-.05-3.35-.87-4.47-2.2,2.46.45,4.92.9,7.38,1.35-.56-.64-1.13-1.27-1.69-1.91,4.52,1.07,9.05,2.15,13.57,3.22l-11.59.84c2.87.43,5.74.85,8.61,1.28l-3.58.55c1.87,1.24,4.07,1.92,6.28,1.95-.6-.17-1.07-.76-1.11-1.41,3.03-1.73,7.11-1.1,9.54,1.46-.37.15-.75.29-1.12.44,5.26,3.88,6.38,12.67,2.26,17.86,4.22-4.04,5.86-10.79,4-16.46,2.37.78,3.75,3.9,2.79,6.3-.13-.83-.26-1.66-.39-2.5.88,2.14.54,4.77-.86,6.59,1.3-1.9,2-4.25,1.97-6.59.62-.02,1.24-.03,1.86-.05,3.56,1.25,5.55,6.03,4,9.62.84-.52,1-1.74.88-2.75s-.44-2.05-.2-3.05,1.37-1.84,2.19-1.27c.54.37.65,1.14.7,1.81.19,2.73.07,5.49-.38,8.19,1.51-1.9,3.01-3.81,4.52-5.71.7.55,1.1,1.5,1.02,2.42l-.02-2.43c3.43,1.34,6.94,2.72,9.79,5.14,2.85,2.42,4.99,6.1,4.69,9.93l1.24-.43c-1.73.61-2.8,2.56-2.9,4.48s.59,3.78,1.48,5.46c4.27,8.08,13.55,12.9,22.26,11.56-1.25-2.8-2.49-5.59-3.74-8.39,2.18-5.06,1.37-11.4-2.01-15.67,2.21-.86,2.63-4.09,1.73-6.38-1.88-4.77-7.13-6.83-11.82-8.38-11.37-3.76-22.73-7.51-34.1-11.27-8.29-2.74-16.59-5.48-25.01-7.79-4.28-1.17-8.59-2.24-12.93-3.13-2.14-.44-4.36-1.03-6.53-1.2-1.15-.09-3.54.01-1.57,1.77-.58-.98-2.11-1.05-2.7.07Z"/>
  <path class="cls-1" d="M304.27,165.81c.5,3.14-.71,6.42,0,9.52.62,2.73,2.65,4.9,4.92,6.39s4.83,2.41,7.25,3.61c6.13,3.03,11.44,7.85,15.17,13.78-4.28-4.02-8.56-8.05-12.83-12.07,2.84,3.94,5.68,7.88,8.52,11.83-4.52-2.9-8.48-6.75-11.57-11.26,1.09,3.7,2.21,7.46,4.31,10.63,2.1,3.18,5.38,5.74,9.06,5.91-5.91.49-11.92-3.47-14.05-9.28-.73-1.98-1.04-4.13-1.97-6.01-.93-1.88-2.75-3.53-4.76-3.29,2.76,6.52,5.9,13.48,11.83,16.95,2.88,1.68,6.17,2.39,9.2,3.75,3.02,1.37,5.98,3.7,6.72,7.07,4.46,1.97,9.44,4.55,10.71,9.45.47,1.8.35,3.7.46,5.57s.51,3.83,1.77,5.15-.61,3.58.53,2.15c-1.74,2.13-.83.65-3.05-.91,1.05,2.57,3.46,4.48,6.11,4.83-2.55.26-5.11.51-7.66.77,2.11,2.82,5.2,4.82,8.55,5.54-3.65,1.49-7.73-1.49-9.53-5.14s-2.13-7.88-3.39-11.78-4.02-7.8-7.92-8.13c1.76-3.52.49-8.03-2.03-11-2.51-2.97-6.03-4.76-9.43-6.5-3.4-1.74-6.9-3.61-9.31-6.68-1.44-1.84-2.46-4.07-4.21-5.59-2.51-2.18-6.02-2.48-8.96-3.96-3.55-1.79-6.11-5.27-7.69-9.06s-2.29-7.89-2.98-11.96c-.48-2.79-.93-5.78.19-8.36,1.3-2.97,7.26-7.73,9.65-4.46,1.24,1.7,2.09,4.15,3.3,5.99,1.32,2.02,2.7,4.1,3.09,6.58Z"/>
  <path class="cls-1" d="M269.34,158.64c.41,4.28,1.62,8.48,3.54,12.28.5-3.82,1-7.64,1.5-11.45.28,5.1.91,10.17,1.86,15.18,1.56-2.73,3.18-5.67,3.06-8.86-.11-3.07-1.81-5.79-3.45-8.33-.95-1.47-1.91-2.95-3.21-4.08-4.98-4.31-3.61,2.11-3.3,5.26Z"/>
  <path class="cls-1" d="M261.66,155.51c-1.18,2.57-3.33,4.52-4.79,6.93-2.25,3.71-2.73,8.54-1.27,12.67,1.46,4.12,4.84,7.44,8.86,8.71-3.11-2.47-5.88-6.25-5.23-10.29.42-2.65,2.22-4.77,3.72-6.94,1.5-2.17,2.83-4.86,2.13-7.44.04,5.17.08,10.34.12,15.51,0,1.06.02,2.17.46,3.13s1.42,1.73,2.42,1.53c1.03-.21,1.68-1.37,1.72-2.47s-.35-2.16-.7-3.2c-1.38-4.13-2.01-8.53-1.84-12.9.12-3.1.62-6.29-.32-9.23-.45-1.39-4.38-6.56-5.72-3.93-.43.84.88,2.7,1.03,3.52.27,1.45,0,3.07-.6,4.4Z"/>
  <path class="cls-1" d="M282.18,204.46c.92,2.11,1.89,4.31,3.63,5.75,1.66,1.38,3.83,1.9,5.94,2.03,2,.12,4.29-.23,5.43-1.96,1.23-1.85.57-4.43-.55-6.35-2.55-4.34-6.94-6.86-11.04-9.3-2.1-1.25-4.23-2.47-6.18-3.98-1.13-.87-3.95-4.62-5-4.32,1.85,6.17,5.21,12.22,7.77,18.12Z"/>
  <path class="cls-1" d="M295.61,196.58c2.62,1.67,5.45,3.38,6.82,6.26,1.64,3.44.49,8.07-2.54,10.23-3.28,2.31-7.92,2.24-11.14-.16,3,3.4,3.58,8.91,1.34,12.91,1.81-3.15,4.94-5.44,8.38-6.14s7.15.19,9.96,2.4c-4.98-2.14-10.75-2.15-15.73-.04,10.18,2.83,20.79,3.99,31.31,3.4-1.97-.68-3.95-1.36-5.92-2.04-1.24-5.02-.1-10.64,3-14.69-4.64,2.04-7.48,7.79-6.4,12.94-3.81-2.34-6.98-5.81-9.04-9.9,2.84-2.77,4.21-7.11,3.49-11.1-.72-4-3.49-7.52-7.1-9.02-3.06-1.27-6.47-1.11-9.72-1.61-4.42-.68-8.49-2.66-12.01-5.52,3.36,4.95,10.38,8.95,15.3,12.08Z"/>
  <path class="cls-1" d="M244.17,164.95c-2.95,5.03-4.71,11.52-2.17,16.8,2.7,5.61,9.54,8.39,11.31,14.39.49-2.69-.97-5.36-2.73-7.4s-3.88-3.76-5.21-6.13c-2.27-4.06-1.55-9.7,1.66-12.98-2.07,4.88-1.37,10.93,1.75,15.15.61-5.47,1.21-10.94,1.82-16.42.33-2.97,2.7-11.37.76-13.68-2.7,2.85-5.17,6.81-7.19,10.25Z"/>
  <path class="cls-1" d="M247.63,198.75c1.52.61,3.04,1.22,4.56,1.83,2.09,3.49,1.77,8.38-.76,11.53,1.67-.61,3.33-1.21,5-1.82-3.67,5.59-5.53,12.46-5.22,19.25-2.34-2.16-4.41-4.65-6.13-7.39,3.98-4.06,5.62-10.48,4.09-16.08s-6.15-10.14-11.58-11.37c3.52,1.33,6.54,4.09,8.26,7.58-1.76.44-3.65.3-5.34-.37,1.25.87,2.51,1.76,3.43,3s1.44,2.91.99,4.41c-.32,1.05-1.06,1.89-1.78,2.69-2.85,3.17-5.71,6.33-8.56,9.5,5.46-3.28,9.99-8.25,12.87-14.12,1.47.01,2.44-1.83,2.19-3.36s-1.31-2.74-2.33-3.86c-1.78-1.97-6.99-6.07-7.34-8.6,1.55-.22,3.55,1.5,4.65,2.59.86.84,2.21,4.18,2.98,4.59Z"/>
  <path class="cls-1" d="M256.61,216.82c-1.85,5.13-.85,10.85.17,16.23.06.3.19.67.48.7.33.02.49-.41.54-.75.59-3.65,1.04-7.33,1.36-11.01.18-2.1,1.61-8.88-.25-10.15-1,1.18-1.74,3.42-2.31,4.98Z"/>
  <path class="cls-1" d="M265.99,215.56c1.91-8.36-.66-17.69-6.52-23.69,3.2,2.73,6.05,5.92,8.42,9.46-1.31-2.22-2.19-4.71-2.59-7.28.88,1.11,1.71,2.28,2.48,3.48-1.82-3.87-13.24-12.02-10.99-2.99.94,3.77,2.29,7.47,3.85,11.01.78,1.78,1.63,3.52,2.54,5.23.4.75,2.97,4.1,2.81,4.79Z"/>
  <path class="cls-1" d="M246.55,235.02c-.8,1.39-1.88,2.59-2.64,4-1.72,3.19-1.55,7.4.42,10.42-.77-2.73-1.52-5.81-.2-8.3.86-1.62,2.46-2.67,3.45-4.2.97-1.49,1.39-3.67.75-5.38-1.18.23-1.15,2.34-1.79,3.44Z"/>
  <path class="cls-1" d="M239.82,275.21c-1.91,3.46-5,6.04-7.04,9.42-3.01,5-3.4,11.34-2.29,17.14,1.11,5.79,3.6,11.18,6.07,16.5-3.77-7.28-5.09-16.68-.88-23.69,1.66-2.77,4.06-4.98,5.8-7.69,3.02-4.7,3.86-10.88,2.21-16.28.78,3.74,1.57,7.53,1.48,11.36-.09,3.83-1.14,7.77-3.61,10.59-1.45,1.65-3.32,2.86-4.75,4.53s-2.4,4.11-1.52,6.16c.04-1.83,1.14-3.46,2.46-4.66,1.31-1.2,2.86-2.09,4.21-3.24,4.99-4.28,6.61-11.75,5.7-18.44-.91-6.69-3.96-12.82-6.96-18.8,1.42,2.24,1.6,7.63,2.04,10.31-.43-.67-1.03-1.29-1.78-1.5.14,2.92.43,5.5-1.11,8.29Z"/>
  <path class="cls-1" d="M220.55,295.42c.68,2.75,2.14,5.21,3.22,7.81,1.08,2.6,1.8,5.59.9,8.27,0-13.78,1-27.22,1.97-40.95-2.4,7.89-8.22,16.31-6.1,24.87Z"/>
  <path class="cls-3" d="M96.86,208.85c24.71-10.51,52.97,2.04,62.98,27.98s-1.95,55.59-26.66,66.1c-24.71,10.51-52.97-2.04-62.98-27.98s1.95-55.59,26.66-66.1M92.05,196.4c-31.31,13.31-46.4,50.74-33.72,83.59,12.68,32.85,48.35,48.7,79.65,35.38s46.4-50.74,33.72-83.59-48.35-48.7-79.65-35.38h0Z"/>
  <path class="cls-1" d="M152.02,204.78c-1.4,4.84-4.92,7.54-9.52,9.38,7.52,5.44,13.66,13.15,17.34,22.67,10.01,25.94-1.95,55.59-26.66,66.1-11.02,4.68-22.73,4.78-33.22,1.15-2.33,1.69-5.63,4.69-5.08,7.87.2,1.15.11,2.73-.18,4.46,13.58,5.03,28.9,5.09,43.3-1.03,31.31-13.31,46.4-50.74,33.72-83.59-4.29-11.11-11.21-20.26-19.69-27.01Z"/>
  <path class="cls-1" d="M324.74,205.39c-3.56-1.2-7.11-2.4-10.67-3.61,6.82,4.67,10.7,13.67,9.52,22.13.73-4.5.63-9.14-.28-13.6,4.8,3.48,8.09,9.18,8.81,15.26-3.54,1.8-7.07,3.61-10.61,5.41-2.9-8.61-5.8-17.23-8.69-25.84,4.98,9.06,3.83,21.38-2.72,29.26,10.9-5.36,25.54.7,30.01,12.44-6.84,2.89-13.07,7.32-18.17,12.91,4.77,1.01,9.55,2.01,14.32,3.02-4.44,4.28-9.44,7.91-14.82,10.76,1.82-.04,2.74,3.02,1.23,4.08,4.65-.52,9.34-.7,14.01-.51,1.72.07,3.6.25,4.83,1.53,1.84,1.91,1.15,5.35-.65,7.3-1.8,1.95-4.35,2.86-6.7,4.01s-4.74,2.79-5.53,5.37c5.72-4.11,12.7-6.25,19.63-6-4.2,9.42-12.61,16.67-22.24,19.15,6.24,1.4,12.68,4.37,15.81,10.21-3.43.92-6.86,1.83-10.29,2.75,6.94-.98,14.15.25,20.44,3.49-5.51.8-11.03,1.61-16.54,2.41,8.41-2.73,17.43,3.49,21.92,11.44s5.81,17.36,8.34,26.21c.73,2.57,1.63,5.21,3.49,7.04,1.86,1.84,4.95,2.57,6.98.96,2.06-1.63,2.23-4.74,2.21-7.44-.25-37.08-2.64-75.1-16.94-109.01-4.27-10.12-15.55-35.5-18.79-41.76-4.14-7.98-4.21-9.59-18.17-24.51-5.97-6.37-30.52-24.9-23.83-10.15,4.93,10.52,14.97,18.62,24.08,25.3Z"/>
  <rect class="cls-1" x="29.44" y="276.55" width="391.39" height="122.07" rx="14.62" ry="14.62"/>
  <path class="cls-1" d="M313.02,202.81c-.86,4.03-4.37,7.48-8.31,7.46-.11,4.63,2.47,9,5.95,11.85,3.48,2.85,7.77,4.37,12.06,5.47,3.73.95,7.94,1.54,11.18-.61,3.11-2.06,4.49-6.27,4.16-10.12-.33-3.85-2.12-7.4-4.17-10.6-5.45-8.53-13.15-15.42-21.95-19.89-3.79-1.93-6.85-2.06-3.85,2.97,2.67,4.48,6.2,7.49,4.93,13.46Z"/>
  <ellipse class="cls-1" cx="225.14" cy="367.13" rx="154.72" ry="52.34"/>
  <path class="cls-1" d="M236.69,176.09c.53,2.63,1.72,5.14,1.75,7.83.08,7.06-7.51,11.83-8.65,18.79-.6,3.67.7,7.4.51,11.12-.18,3.65-1.78,7.04-2.65,10.57-.87,3.54-.84,7.76,1.65,10.31-.53-.66-1.36-1.05-2.18-1.03.93,2.6,1.86,5.2,2.79,7.8-2.14,2.26-4.29,4.53-6.43,6.79l.42,4.82-2.93-.25c-.6,4.72-2.29,9.28-4.91,13.17,3.13-8.21,5.44-16.77,6.87-25.49-2.13,8.7-6.84,16.69-13.32,22.57,3.17-1.63,5.86-4.25,7.65-7.44-3.42,6.34-7.51,12.28-12.17,17.68,9.38-6.43,17.03-15.61,21.86-26.22,1.49,12.63-2.38,25.86-10.37,35.44,6.27-12.64,12.67-25.77,13.42-39.99,4,11.07,3.7,23.78-.82,34.63,4.26-6.51,6.5-14.45,6.3-22.35,1.6,7.17,1.09,14.84-1.44,21.7,4.63-6.92,4.28-16.07,4.1-24.52-.18-8.45.32-17.83,6.01-23.82-2.23,4.58-5.54,8.57-9.56,11.52,2.67-6.06,5.33-12.11,8-18.17-3.75,3.15-7.5,6.29-11.24,9.44,1.94-3.64,3.9-7.33,4.83-11.38.93-4.05.73-8.57-1.45-12.06,1.55.64,2.79,2.05,3.26,3.72.2-3.6-.86-7.25-2.94-10.12,2.73,1.35,4.84,4,5.62,7.06-.94-2.62-1.88-5.24-2.82-7.86,1.14.35,2.14,1.21,2.68,2.33-.61-2.31-1.21-4.62-1.82-6.93,1.87.03,3.74.36,5.51.96-2.52-8.93-5.07-18.26-3.57-27.44.86-5.25,3.03-10.32,2.92-15.65-.18-8.22-5.66-15.12-10.85-21.29,1.01,3.51,2.02,7.01,3.04,10.52.71,2.45,3.19,4.8,4.07,7.43.99,2.98,1.42,6.17,1.27,9.33-.14,2.91-.68,6.21-2.13,8.74-1.56,2.72-3.01,4.12-2.29,7.71Z"/>
  <path class="cls-1" d="M212.94,129.87c5.12,5.21,10.77,9.85,16.82,13.81-3.92-4.34-7.84-8.68-11.76-13.02,4.81,2.16,8.37,6.68,10.6,11.64,2.23,4.97,3.28,10.41,4.31,15.79,1.31-8.1-1.45-16.81-7.13-22.47,6.13,2.54,10.59,9.03,10.94,15.94s-3.44,13.86-9.28,17.06c5.93-3.9,10.27-10.51,11.26-17.78.99-7.27-1.52-15.06-6.77-19.92-5.63-5.22-13.52-6.69-21.01-7.37-2.5-.23-5.1-.38-7.46.53s-4.43,3.15-4.45,5.78c-.01,2.25,1.63,4.4,3.73,4.86,2.1.47,4.43-.8,5.29-2.86,4.86,4.35,10.59,7.61,16.71,9.51-6.74-1.01-13.25-3.65-18.88-7.67,6.04,4.95,12.98,8.69,20.33,10.96-4.53-.05-9.04-1.17-13.11-3.24l2.3,1.77c-6.22-.74-12.08-4.36-15.71-9.72"/>
  <g>
    <path class="cls-2" d="M184,376.93h-13.29c-1.49,0-2.71-.34-3.64-1.01-.94-.67-1.64-1.51-2.11-2.51l-6.9-17.05h-38.28l-6.9,17.05c-.34.89-1,1.7-1.98,2.43-.98.73-2.19,1.1-3.64,1.1h-13.42l36.36-83.6h17.51l36.29,83.6ZM153.65,345.37l-11.25-27.81c-.55-1.23-1.13-2.7-1.73-4.39-.6-1.7-1.19-3.53-1.79-5.49-.55,1.96-1.13,3.81-1.72,5.52-.6,1.72-1.17,3.21-1.73,4.48l-11.18,27.69h29.39Z"/>
    <path class="cls-2" d="M208.07,325.33c2.04-3.73,4.47-6.66,7.28-8.79,2.81-2.13,6.13-3.2,9.97-3.2,3.02,0,5.45.63,7.28,1.89l-1.02,11.26c-.21.73-.52,1.25-.93,1.55-.41.3-.95.46-1.63.46-.64,0-1.59-.1-2.84-.3-1.26-.2-2.48-.3-3.67-.3-1.75,0-3.3.24-4.67.73s-2.59,1.19-3.67,2.1c-1.09.91-2.04,2.02-2.88,3.32-.83,1.3-1.61,2.78-2.33,4.44v38.46h-15.78v-62.44h9.26c1.62,0,2.75.28,3.39.82s1.06,1.53,1.28,2.95l.96,7.06Z"/>
    <path class="cls-3" d="M267.02,377.91c-5.71,0-10.09-1.53-13.13-4.6-3.05-3.06-4.57-7.29-4.57-12.69v-34.87h-6.71c-.85,0-1.58-.26-2.17-.79-.6-.53-.89-1.32-.89-2.38v-5.96l10.54-1.64,3.32-17.04c.21-.81.62-1.44,1.21-1.88.6-.45,1.36-.67,2.3-.67h8.18v19.66h17.51v10.71h-17.51v33.83c0,1.95.5,3.47,1.5,4.56,1,1.1,2.37,1.64,4.12,1.64.98,0,1.8-.11,2.46-.33.66-.22,1.24-.46,1.73-.7.49-.24.93-.48,1.31-.7.38-.22.77-.33,1.15-.33.47,0,.85.11,1.15.33.3.22.62.56.96,1l4.73,7.3c-2.3,1.83-4.94,3.21-7.92,4.14-2.98.93-6.07,1.4-9.27,1.4Z"/>
    <path class="cls-3" d="M293.6,323.2c7.54-6.57,16.61-9.86,27.22-9.86,3.83,0,7.26.6,10.29,1.8,3.02,1.2,5.58,2.86,7.67,4.99,2.09,2.13,3.67,4.68,4.76,7.64,1.09,2.96,1.63,6.21,1.63,9.74v39.43h-7.16c-1.49,0-2.64-.21-3.45-.64-.81-.43-1.45-1.29-1.92-2.59l-1.41-4.5c-1.66,1.42-3.28,2.67-4.86,3.74-1.58,1.08-3.22,1.98-4.92,2.71-1.7.73-3.53,1.29-5.46,1.67-1.94.38-4.08.58-6.42.58-2.77,0-5.33-.36-7.67-1.06-2.34-.71-4.37-1.78-6.07-3.2s-3.02-3.19-3.96-5.29c-.94-2.11-1.41-4.56-1.41-7.36,0-1.58.28-3.15.83-4.72.55-1.56,1.46-3.05,2.72-4.47,1.26-1.42,2.88-2.76,4.89-4.02,2-1.26,4.46-2.35,7.38-3.29,2.92-.93,6.32-1.69,10.19-2.28,3.88-.59,8.31-.94,13.29-1.07v-3.65c0-4.18-.94-7.27-2.81-9.28-1.88-2.01-4.58-3.01-8.11-3.01-2.56,0-4.68.29-6.36.85-1.68.57-3.16,1.21-4.44,1.92-1.28.71-2.44,1.35-3.48,1.92-1.04.57-2.21.85-3.48.85-1.11,0-2.04-.28-2.81-.82-.77-.55-1.38-1.19-1.85-1.92l-2.81-4.81ZM329.77,350.28c-4.56.2-8.39.58-11.5,1.13-3.11.55-5.6,1.25-7.48,2.1-1.88.85-3.22,1.85-4.03,2.98-.81,1.14-1.21,2.37-1.21,3.71,0,2.64.82,4.52,2.46,5.66,1.64,1.13,3.78,1.7,6.42,1.7,3.24,0,6.04-.56,8.4-1.67,2.36-1.12,4.67-2.81,6.93-5.08v-10.53Z"/>
  </g>
  <g>
    <path class="cls-1" d="M159.8,149.87c-.35-.05-.48.46-.36.73-.27.38-.65.78-.7,1.16,0,.06.04.05.13-.09.18-.27.43-1.03.43-1.2.02-.19-.07.07-.05.53l.98-2.29c.23-.25.5-.58.51-.88.03-.21,0-.46-.15-.43-.48.19-.59,1.18-.59,1.75-.22.13-.49.52-.21.72h0ZM160.27,150.04c.25.22-.1.62-.32.72-.07.96-1.38,2.48-1.83.98-.16-.35,0-.79.19-1.15l.98-2.29c.16.46.21.74.36.58.14-.14.53-.86.84-1.07.15-.11.26-.09.32,0,.25.42-.05.98-.25,1.44.13.26.07.8-.28.8h0Z"/>
    <path class="cls-1" d="M168.9,108.65c.18-.94,1.34-.57,1.65.13.12.2.17.47.24.4.05.01.57.09.13.04-.21,0-2.35-.31-.72-.04-.15-.02-3.69-.51-3.69-.53-.86-.14.29,0,.4,0,.18-.13.59-.69,1.14-.73.48-.08.88.25.85.73h0ZM168.84,109.14c-.03.48.36.82.85.75.55-.04.95-.59,1.13-.71l.69.11c-.52,0-3.35-.43-4.01-.5,1.65.23-.51-.1-.71-.13-.43-.07.08,0,.14,0,.08-.07.13.19.25.39.32.7,1.48,1.03,1.65.09h0Z"/>
    <path class="cls-1" d="M168.92,108.48c0,.09.16-.65.66-1.14.48-.51,1.01-.3.95.2-.03.53-.73,1.05-.87,1.16-.17.14.11.18.56.37l-2.71-.37c-.4-.17-.76-.46-.75-.9-.12-.61.45-1.4,1.17-1.23.67.13,1.01,1.39,1,1.92h0ZM168.86,108.98c-.02.55.3,1.86.98,2.04.68.2,1.28-.52,1.15-1.11,0-.42-.38-.68-.76-.82l-2.71-.37c.45.17.73.18.57.29-.14.08-.84.58-.86,1.08-.05.48.48.66.96.12.5-.52.67-1.29.67-1.22h0Z"/>
    <path class="cls-1" d="M169.22,108.17c.66.06,1.33.15,1.98.27-1.37-.2-3.09-.33-4.47-.5-.05,0-.17-.02-.22-.03-.12-.01,4.76.27,4.73.27h-2.02ZM168.72,108.14h-2.02s4.84.28,4.73.27c-.05,0-.17,0-.22,0-1.43-.14-3.07-.26-4.47-.5.66.11,1.32.19,1.99.24h0Z"/>
    <g>
      <path class="cls-1" d="M405.73,276.8l-37.75.07h-.24c-2.54-9.08-6.18-18.28-10.18-26.85-3.89-8.68-7.87-17.32-11.8-25.98-.16-.45-.16-.95-.33-1.4-.38-1.21-1.05-2.3-1.9-3.25-2.27-4.43-4.42-9.14-7.23-13.25-3.52-5-8.06-9.63-12.28-14.15-2.54-2.76-5.41-5.06-8.37-7.36-4.09-3.09-8.44-6.2-13.12-8.19-.75-2.43-.42-5.08-.25-7.16.46-3.39-.82-6.1-2.75-8.8-1.32-1.83-2.09-4.05-3.3-5.88-.11-.17-.26-.38-.32-.41l-.32-.14-.09-.81c-1.07-8.96-3.02-27.12-4.01-36.09l-.11-1.02.79-.71.16-.14-.68,1.77-.82-6.64c-.34-2.12-.32-4.47-.81-6.59-.01-.04,1.17,1.66,1.16,1.65,0,0-.78-.39-.78-.39l-.33-.98-.36-1.06-.14-.99c.02.08.02.07,0,.04-.01-.03-.06-.13-.14-.26-.14-.32-.75-.82-1.07-1.27-3.93-5.35-10.54-8.97-16.74-11.37-18.77-7.4-41.84-17.01-60.64-24.01-6.68-2.43-13.69-4.34-20.63-5.87-3.27-.68-6.95-1.4-10.17-1.22,0,0-.52.06-.52.06-.13,0-.09.02-.07.01.02-.02.02-.02.01,0-.03,0-.21.14-.39.39-2.99,5.2-3.17,11.52-4.16,17.45-.92,6.63-3.66,25.42-4.63,32.35,0,0-2.98-.2-2.98-.2,0,0,2.98.2,2.98.2l-.08.53-2.96-.39.07-.51,2.95.4-.08.55-2.94-.38v-.07s2.95.42,2.95.42l-1.12,7.8-.03.23c-.51.94-.65,2.45-.71,3.65-.03.52,0,1.01-.03,1.5l-.67,4.68s-1.94-1.38-1.88-1.38c0,0,2.4-1.08,2.4-1.08l-.52,2.61c-1.18,5.6-3.35,14.36-4.65,20.05,0,0-.57,2.44-.57,2.44l-1.47-2.01-1.08-1.47,1.92-1.19c.5,1.01.97,2.05.95,3.29.03,1.51-1.2,2.98-2.87,3.02,0,0,.7-1.91.7-1.91,1.39,1.13,1,3.47-.73,4.1l-.8-1.96c.84-.42,2.52-1.13,3.35-1.53-.04,1.79-.13,3.72-1.23,5.22,0,0-1.24-1.5-1.24-1.5l1.17-.48,2.86-1.18c-.67,1.06-2.02,3.34-2.68,4.38l-1.43-1.32c.57-.38,1.89-1.34,2.43-1.71l.56.77c5.45,7,3.54,10.49-1.74,16.5-1.28,1.64-2.6,3.23-2.8,5.28-.06,1.96,2.45,2.42,4.09,3.33.67.32,1.25.71,1.93.99.97.45,2.67.79,3.74,1.04-3.15,2.14-6.48,4.42-8,8.03,0,0-1.5-.49-1.5-.49l.5-2.24,1.52.43-.91,2.61-.06-.65c.89,1.53,1.11,3.33.81,5-.3,1.67-1.13,3.3-2.52,4.4l.21-.26-3.86,7.74-.27.53-.58-.14-2.22-.52c-21.38-16.92-51.67-17.4-73.01-.1-21.3,16.76-29.06,47.54-19.55,72.69-3.95.06-11.72.07-15.23.12-6.88-.04-12.91,6.06-12.76,12.93,0,0,.02,3.27.02,3.27.14,23.52.34,66.5.45,89.87.29,7.56,6.7,12.66,14.21,11.97,0,0,3.27,0,3.27,0l52.32-.16h.53c19.19,8.38,39.91,13.07,60.6,16.24,51.56,7.18,104.89,6.34,155.65-5.74,10.25-2.56,20.34-5.76,30-9.92,3.27.18,54.08.53,55.57.66,0,0,1.53.02,1.53.02h.77s.7-.02.7-.02l.7-.03.69-.1c.47-.05.92-.15,1.37-.27,7.02-1.9,10.65-8.09,10.17-15.25.07-.94.11-13.84.16-15.33.24-22.51.5-52.62.53-75.11.12-7.73-6.57-14.51-14.31-14.42h0ZM405.73,276.3c7.42-.14,14.17,5.98,14.85,13.36.29,3.06.05,24.45.19,27.62-.07,17.59.46,43.77.55,61.32,0,4.09.49,8.75-1.59,12.51-2.53,5.24-8.17,8.75-14.01,8.79-.29,0-1.93.03-2.3.03,0,0-6.13.07-6.13.07l-49.05.58.8-.17c-39.01,16.98-82.25,21.16-124.38,21.69-42.17-.34-85.45-4.43-124.62-21.15,0,0,1.04.22,1.04.22l-52.32-.16h-3.27s-1.64-.01-1.64-.01c-9.01.25-17.18-7.55-17.18-16.61-.03-.65,0-1.12-.01-1.69v-3.27c.07-3.84.03-15.55.09-19.62-.13-10.18.43-56.42.34-65.4.07-1.43-.05-3.76.15-5.11.88-8.03,8.24-14.56,16.31-14.4,0,0,13.08.1,13.08.1l-1.48,2.04c-9.59-29.26,2.98-64.07,30.41-78.74,14.79-8.2,32.99-9.72,48.89-3.93,6.33,2.3,12.25,5.66,17.54,9.82l-.3-.14,2.22.51-.85.4,3.84-7.76.08-.15.14-.11c2.19-1.75,2.7-5.4,1.13-7.72,0,0,.12-.34.12-.34l.9-2.62,1.52.43-.49,2.25-1.5-.49c.72-1.63,1.75-3.13,2.99-4.39,1.24-1.27,2.64-2.31,4.03-3.28l.28,1.46c-1.49-.29-2.9-1-4.23-1.72-3.32-1.39-6.52-2.84-4.48-7.33,3.6-7.3,11.16-9.55,4.06-18.1,0,0,1.36.22,1.36.22l-1.62,1.17-1.43-1.32,1.04-1.76,1.26,1.45c-1.02.41-3.27,1.43-4.26,1.84.83-1.37,2.71-3.6,2.61-5.31,0,0,1.49.98,1.49.98l-1.78.85-.8-1.96s.13-.11.13-.23c0-.12-.02-.13-.1-.22l-2.89-2.27,3.59.36c.06,0,.31-.1.45-.27.52-.85-.06-1.78-.56-2.84,0,0,1.92-1.19,1.92-1.19l1.11,1.46-2.05.44c.72-3.17,2.58-12.03,3.27-15.13.37-1.67.73-3.36,1.06-5.11l1.88,1.54-.05.02-2.2,1.09.31-2.46.59-4.69v.24c-.06-1.52,0-2.94.29-4.44.11-.52.25-1.04.52-1.62l-.13.43.98-7.82,2.94.42s-2.94-.38-2.94-.39l.07-.55,2.95.4-.06.5-2.96-.39.07-.53s2.98.2,2.98.2l-2.98-.2,2.73-21.59,1.36-10.78c.88-5.58,1.32-17.53,6.18-20.79.57-.39,1.42-.46,2.04-.55,7.65-.36,14.84,1.87,22.13,3.66,17.52,5,34.27,12.51,51.21,19.03,7.59,3.02,15.18,6.11,22.74,9.22,6.17,2.84,11.92,6.29,16.06,11.99,0,0-.16-.21-.16-.21,1.03,1.12,2.35,2.73,2.08,4.54,0,0-.14-.99-.14-.99l.5,1.53s-1.12-1.37-1.11-1.37l1.04.52.13,1.14s-.06-.28-.05-.28c.55,2.25.45,4.62.78,6.93.12.7.75,7.17.84,7.68,0,0-.8.69-.8.69l-.16.14.68-1.73,3.38,36.14-.41-.96c.83.9,1.21,1.91,1.77,2.93,1.62,3.91,4.78,7.02,5.12,11.4.29,2.89-.78,6.23-.19,8.79l-.84-1.01c4.76,2.27,8.8,5.33,12.88,8.54,3.99,3.08,7.72,6.8,11.03,10.61,3.35,3.79,6.75,7.56,9.63,11.84,2.82,4.31,4.79,8.93,7.04,13.54,0,0-.12-.18-.12-.18.62.73,1.15,1.55,1.56,2.43.42.88.67,1.83.8,2.78l-.06-.2c3.78,8.74,7.5,17.51,11.32,26.23,3.85,8.56,7.39,17.77,9.83,26.83,0,0-.3-.23-.3-.23l37.75.07h0Z"/>
      <path class="cls-1" d="M69.49,275.04c-7.87-20.29-5.1-44.9,12.43-59.39,12.56-10.4,30.12-13.72,45.74-9.46,5.83,1.5,11.37,4.19,16.4,7.57,0,0-1.74,1.24-1.74,1.24l-2.72,1.94.41-2.2c.55.66,2.05,2.63,2.57,3.26,0,0-.79,1.09-.79,1.09-1.14,1.57-1.53,3.59-1.31,5.46,0,0-.4.61-.4.61-2.6,3.91-5.27,7.78-7.94,11.65l-1.61-.21c-.76-.06-1.5.96-1.59,1.68-.04.29,0,.49.09.64l1.22,2.39c-1.63.54-5.62,1.87-7.3,2.42,0,0,.24-4.69.24-4.69l2.2.91-1.68,4.78c-.52-.07-1.24.82-1.12,1.21l-2.43,2.78c.57-.04,1.01-.37,1.12-.74.06-.35-.12-.78-.56-1.09,0,0-.02,4.4-.02,4.4l-6.7,4.53.9-3.42c1.83,3.71.5,8.24-2.61,10.79-1.04.84-2.39,1.48-3.85,1.64l.6-4.91c3.62,1.44,4.23,6.75,1.07,8.98l.9-2.78c.43,1.42,1.38,4.41,1.81,5.84,0,0-3.34-.27-3.34-.27-1.55-.14-3.35,1.32-3.71,2.88,0,0-.38,1.41-.38,1.41-1.85.31-3.75.58-5.6.85,0,0,1.24-2.44,1.24-2.44.35.96,1.14,3.01,1.5,3.97,0,0-2.44-.15-2.44-.15-9.89-.64-19.79-1.35-29.7-1.38,0,0-.19,0-.19,0l-.07-.16-.65-1.62h0ZM69.96,274.86l.68,1.59-.25-.17c4.95-.05,9.9-.18,14.85-.46,4.95-.25,9.9-.62,14.85-.92l-1.51,2.33c-.42-.76-1.29-2.46-1.72-3.24,2.11-.59,4.41-1.22,6.5-1.79l-1.57,1.6c.62-3.76,3.81-6.8,7.77-6.86,0,0-2.28,3.13-2.28,3.13l-.9-2.39.9-2.78c-.1.05-.14.12-.13.08,0-.03,0-.14-.01-.25-.02-.11-.07-.2-.08-.21-.02-.01.05.09.19.14l.6-4.91c.94-.15,1.76-1,2.18-1.93.45-.94.55-2.15.11-3.04,0,0-1.03-2.14-1.03-2.14l1.92-1.29,6.71-4.5-.02,4.4c-.85-.57-1.4-1.5-1.59-2.3-.62-2.48.87-5.26,3.63-5.52l-2.43,2.78c-.21-3.99,3.8-7.51,7.74-6.4,0,0-1.68,4.78-1.68,4.78l-2.17-.97-6.23-2.79c2.68-.79,8.46-2.49,11.11-3.27l-1.49,3.29c-1.88-4.33,2.25-9.81,6.97-8.7,0,0-2.37.88-2.37.88,2.56-3.4,5.12-6.81,7.73-10.17l-.36,1.19c0-2.61.94-5.13,2.6-7.09l-.05,2.03c-.59-.89-1.98-3.02-2.55-3.89,1.01-.6,3.21-1.9,4.21-2.5l-.04,2.32c-.93-.67-2.18-1.61-3.15-2.19-20.88-13.4-44.92-6.17-59.17,13.01-10.29,13.94-14.88,32.51-8.48,49.08h0Z"/>
    </g>
  </g>
</svg>