<?xml version="1.0" encoding="UTF-8"?>
<svg id="Calque_1" data-name="Calque 1" xmlns="http://www.w3.org/2000/svg" viewBox="0 0 600 600">
  <defs>
    <style>
      .cls-1 {
        fill: #343736;
      }

      .cls-1, .cls-2 {
        stroke-width: 0px;
      }

      .cls-2 {
        fill: #fff;
      }
    </style>
  </defs>
  <rect class="cls-1" x="-16.33" y="-12.83" width="625.33" height="648"/>
  <g>
    <path class="cls-2" d="M18.9,585.04c-10.8-3.99-21.73,9.57-19.92,21.44,1.82,11.87,11.7,20.54,21.86,26.07,10.17,5.53,21.42,9.2,30.32,16.76-13.93,36.44,30.34-21.09,16.41,15.34,10.65,3.36,28.79,7.75,33.27-2.93-1.63,7.96,22.54-7.96,20.91,0,7.59-7.08,50.59,10.01,58.19,2.93,47.01-19.64,266.21-160.63,63.19,18.61-11.03,9.74,1.99,10.53,16.31,8.75,65.15-8.08,25.22,11.04,90.48,18.1,91.03,9.85,164.7,4.7,240.96-48.39,22.47-15.64,45.36,31.47,57.45,6.18,15.41-32.23,15.08-70.16,11.11-105.98-4.24-38.3-12.24-76.14-23.85-112.72-5.62-17.71-12.07-35.12-18.52-52.51-12.05-32.5-24.69-65.98-48.02-90.83-15.18-16.17-34.16-27.87-49.91-43.42-24.34-24.04-39.92-56.2-62.01-82.52-26.46-31.53-62.36-54.2-101.29-63.97-37.48-9.4-83.47-3.42-104.24,30.64-16.15,26.49-11.89,60.58-12.6,92.02-1.25,55.63-21.49,110.04-54.54,153.32-16.69,21.86-36.71,40.97-59.26,55.99-10.13,6.75-22.47,9.8-27.09,21.33-5.57,13.9-9.55,27.93-16.48,41.3-15.22,29.35-36.75,55.13-62.73,74.5Z"/>
    <path class="cls-2" d="M221.9,281.63c.34-1.51.67-3.02,1.01-4.53-.61,1.76-1.22,3.52-1.83,5.29,3.15,5.38,1.75,13.18-3.05,16.98-2.59,5.22-5.18,10.44-7.78,15.66-1.81-.42-3.62-.84-5.44-1.26.34,1.47.68,2.94,1.02,4.42-5.65,2.11-11.3,4.23-16.96,6.34.93,1.27,1.85,2.54,2.78,3.8-3.89,2.54-7.79,5.08-11.68,7.61,1.17,1.62,2.33,3.23,3.5,4.85-2.67,3.34-4.12,7.73-4,12.09-5.02,6.98-10.05,13.96-15.07,20.94-5.5-1.3-10.93,5.76-8.56,11.13-3.1.97-6.21,1.94-9.31,2.92,1.47.63,2.95,1.27,4.42,1.9-4.34-1.2-9.22,2.98-8.95,7.69-2.6.2-3.67,4.56-1.49,6.05-4.51,3.04-9.03,6.08-13.54,9.11,3.47,6.89-1.46,16.68-8.83,17.57,3.46,1.31,4.16,7.15,1.11,9.31.56,1.62,1.11,3.25,1.67,4.87-5.39-.09-10.55,4.28-11.6,9.83-2.93.62-5.86,1.24-8.78,1.85.65,1.45,1.31,2.89,1.96,4.34-1.41,1.98-2.82,3.97-4.23,5.95,107.65-4.15,215.29-8.3,322.94-12.44-6.83-15.1-4.57-32.73-5.52-49.41-1.08-19.04-6.51-37.48-11.89-55.7-11.75-39.73-23.49-79.46-35.24-119.19-3.35-11.33-6.97-23.14-14.97-31.51-15.01-15.7-41.32-13.45-58.31-.17-22.77,17.8-31.54,49.4-55.39,65.93-7.25,5.03-14.14,9.13-17.98,17.79Z"/>
    <path class="cls-2" d="M226.97,196.69c-.74-.99-1.47-1.97-2.21-2.96,1.03,2.05,2.09,4.33,1.61,6.59s-3.4,3.93-4.98,2.31c1.19.01,2.3,1.02,2.49,2.26s-.58,2.55-1.71,2.95c1.2-.56,2.4-1.12,3.6-1.69-.07,2.15-.75,4.28-1.93,6.04.79-.33,1.57-.66,2.36-1l-2.14,3.55c1.1-.78,2.2-1.56,3.29-2.34,3.28,4.43,6.73,9.44,6.32,15.03-.7,9.45-15.52,18.57-15.65,28.05-.07,5.04,6.85,6.42,11.04,8.87s9.1,3.15,13.9,3.46c3.06.2,6.19.26,9.12-.7s5.66-3.08,6.7-6.1c-1.36,1.97-2.71,3.95-4.07,5.92,15.53,3.14,31.05,6.27,46.58,9.41-1.94-3.3-.8-7.81,1.64-10.73,2.43-2.92,5.88-4.64,9.19-6.37,3.31-1.73,6.7-3.65,8.85-6.81,3.04-4.46,2.97-10.38,2.79-15.86-.86-25.34-1.73-50.82-6.55-75.68-1.82-9.39-4.74-19.49-12.33-24.82-5.42-3.8-12.3-4.44-18.8-4.13-11.94.58-23.74,4.11-34.2,10.19-4.82,2.8-11.14,6.47-14.61,11.08-1.46,1.95-1.6,4.78-2.14,7.17-.85,3.79-1.71,7.58-2.56,11.37-1.87,8.31-3.74,16.61-5.62,24.92Z"/>
    <path class="cls-2" d="M235.98,156.02l14.83-110.12s3.15-30.3,10.84-31.87c10.98-2.24,43.27,6.54,58.74,11.52,22.82,7.35,134.16,52.67,134.16,52.67,0,0,34.65,13.92,35.93,35.46.57,9.56,10.12,101,10.12,101l-84.98-26.48s-31.12-12.67-43.63-18.85c-24.52-12.12-87.26-20.2-105.65-21.55-11.88-.87-30.37,8.23-30.37,8.23Z"/>
    <path class="cls-1" d="M264.8,126.62s51.06-17.12,73.15-21.49c22.09-4.36,54.21-5.7,67.67-3.28,13.46,2.42,36.86,11.24,41.89,13.7,5.03,2.47-2.8,4.32-2.8,4.32l20.97,8.76s19.14,21.54,8.33,14.34c-10.81-7.2-60.34-25.78-67.92-26.84-7.59-1.06,34.48,15.01,34.48,15.01l23.87,12.08s15.49,15.95,15.25,18.87c-.25,2.92-28.66-17.47-29.67-18.73-1.02-1.26-43.7-21.05-43.7-21.05,0,0-23.92-4.89-34.93-5.35-11.01-.46-62.27,1.37-62.27,1.37,0,0,59.02,1.59,72.33,3.56,13.31,1.97,40.55,9.63,49.23,17.68,8.68,8.05,26.4,19.78,26.4,19.78l-16.16-1.47,23.35,16.01-30.69-8.97s-22.66-17.56-26.67-18.77c-4.02-1.21-23.08-6-23.08-6l23.15,11.73,25.39,18.52,25.68,8.41,6.82,7.9-19.39-7.6,20.19,24.67,34.93,10.89-2.98-28.71-4.7-41.91-6.08-2.4,6.08-5.36-3.12-26.76-35.38-22.5s-5.72-3.12-15.4-6.39c-5.44-1.84-12.13-3.73-19.75-5.15-21.19-3.93-60.2-4.26-60.2-4.26,0,0,58.79,5.46,74.16,11.86,15.37,6.4,30.39,19.08,35.03,24.01,4.64,4.93,12.52,17.91,12.52,17.91,0,0-23.65-16.91-43.43-22.05-19.78-5.14-54.16-12.5-71.13-10-16.97,2.51-42,7.39-63.76,17.92-21.76,10.53-58,21.7-61.84,22.85-3.84,1.15-3.36,12.82-3.36,12.82l27.55-19.95Z"/>
    <path class="cls-1" d="M314.35,125.09l50.28,10.79s-17.56.69-29.88-1.93c-12.32-2.62-20.4-8.86-20.4-8.86Z"/>
    <path class="cls-1" d="M330.85,76.21l-26.17,8.44s2.78-6.23,6.47-7.84c3.69-1.61,22.56-1.09,22.56-1.09"/>
    <path class="cls-1" d="M278.75,57.57c20.82,0,58.46,9.28,58.46,9.28l17.39,4.4s-38.78-7.78-48.48-6.84c-9.7.94-32.22-1.45-36.21-2.35-3.99-.9-14.54-3.29-17.11-.6-2.57,2.69,4.56-5.09,13.69-5.09s12.26,1.2,12.26,1.2Z"/>
    <path class="cls-1" d="M252.27,99.77c7.37-1.8,29.04-3.89,37.88-2.99,8.84.9,29.94-4.79,41.35-5.69,11.41-.9,25.38,0,25.38,0,0,0-24.24,1.7-35.93,4.14-11.69,2.44-29.66,7.53-35.36,6.33-5.7-1.2-34.79,1.8-36.21,2.09s-7.38,7.66-8.39,15.16c-1.01,7.5,1.65-12.28,2.14-15.88.49-3.6,9.15-3.17,9.15-3.17Z"/>
    <path class="cls-1" d="M360.78,70.06c-10.73-17.84-29.44-29.04-44.34-42.17,18.08,8.91,33.74,24.54,44.34,42.17Z"/>
    <path class="cls-1" d="M367.05,93.33c-7.53-1.77-14.24-6.09-21.13-9.74-6.89-3.65-16.46-5.45-24.12-4.46,5-1.06-1.56-3.5,13.5-3.24,10.84,5.04,21.25,11.65,31.74,17.45Z"/>
    <path class="cls-1" d="M425.79,75.53c4.65,1.4,9.39,3.94,13.42,5.46,7.6,2.85,15.18,5.85,22.3,9.87,13.54,7.64,24.99,19.11,29.03,35.09,4.08,16.15,1.06,33.32-1.9,49.38-1.29,7.03-2.76,14.44-7.35,19.74-5.34,6.16-14,8.14-21.88,7.18-7.89-.96-15.26-4.45-22.54-7.76-41.29-18.79-84.31-33.41-128.25-43.59,9.56.47,19.12.93,28.68,1.4-7.79.57-15.57,1.14-23.36,1.71,10.77-.83,21.7.53,31.98,3.99-25.73-5.1-51.72-8.71-77.83-10.8,7.76-6.33,18.32-7,28.15-6.93,21.97.16,44.21,2.81,64.66,11.25-2.51-1.81-5.01-3.63-7.52-5.44,13.78-1.36,27.84.58,40.81,5.63,1.94.76,3.96,1.6,6.02,1.34,2.06-.25,4.11-2.05,3.92-4.22-.21-2.26-2.53-3.52-4.56-4.3-9.59-3.66-19.79-5.53-29.98-5.52,12.39,2.43,24.79,4.85,37.18,7.28,3.59.7,7.91,1.16,10.3-1.74,2.11-2.55,1.5-6.69-.53-9.31-2.03-2.63-5.1-4.08-8.09-5.32-20.25-8.44-42.41-11.76-64.09-9.61-4.73.47-10.19,1.75-12.19,6.26,9.2,2.75,18.41,5.49,27.61,8.24-14.33,5.1-29.54-2.53-43.94-7.41-11.58-3.93-24.66-5.99-35.6-.4,32.2-9.44,65.56-13.53,98.77-17.59-.97-4.8-5.29-8.22-9.83-9.4s-9.3-.54-13.93.1c33.72-3.76,68.32,1.42,99.69,14.91,10.05,4.32,20.35,9.6,31.18,8.67-6.66-32.71-44.04-38.05-70.11-39.3-3.67-.18-10.55,1.39-8.43-3.78,1.36-3.33,8.19-5.81,11.26-6.05,2.22-.17,4.57.25,6.95.96Z"/>
    <path class="cls-1" d="M353.1,55.15c14.56,9.89,29.42,19.92,46.17,24.63,10.51,2.95,21.45,3.71,32.19,5.55,10.74,1.84,21.62,4.94,30.28,11.85,1.63-7.66-2.94-16.22-10.02-18.75,13.41,4.46,25.64,12.73,35.05,23.7,1.1,1.28,2.21,2.75,2.21,4.47,0,3.01-3.58,4.81-6.38,4.11s-4.94-2.96-7.11-4.93c-12.46-11.29-29.57-14.87-45.95-16.6-16.38-1.73-33.23-2.09-48.54-8.45-8.99-3.73-17.08-9.43-24.49-15.89-4.84-4.23-18-13.65-19.09-20.2,5.44,2.88,10.55,7.02,15.69,10.51Z"/>
    <path class="cls-1" d="M438.98,196.82c19.72,8.6,40.34,18.39,61.52,15.52-4.95-9.86-13.74-17.1-23.27-21.99-9.54-4.89-19.91-7.67-30.15-10.6-30.13-8.6-59.9-18.69-90.4-25.7-14.99-3.45-30.16-6.14-45.45-7.52-7.71-.7-15.45-1.06-23.19-1.02-7.09.04-16.27-.72-22.97,1.68,3.17,2.69,11.94,2.4,16.3,3.11,5.77.94,11.52,1.96,17.27,3.06,11.65,2.23,23.25,4.77,34.77,7.63,23.05,5.71,45.82,12.68,68.18,20.86,12.6,4.61,25.07,9.6,37.39,14.98Z"/>
    <path class="cls-1" d="M250.74,157.54c8.45-.86,16.91-1.71,25.36-2.57.9,2.83-.97,5.95-3.45,7.43s-5.41,1.75-8.22,2.21c-9.38,1.54-18.25,5.41-26.96,9.39,18.78-7.37,39.47-9.31,59.2-5.54-4.33,4.19-11.03,3.22-16.92,3.24-10.45.03-20.84,4.21-28.64,11.51,12.58-8.37,28.85-10.34,42.92-5.19,1.99.73,3.99,1.63,5.45,3.22,1.46,1.6,2.24,4.04,1.42,6.08-1.1,2.73-4.57,3.58-7.29,2.78-2.72-.8-4.96-2.77-7.36-4.34-2.4-1.57-5.33-2.78-8.01-1.85,1.55.95,2.75,2.52,3.3,4.32-4.12-.16-8.24-.33-12.36-.49.67-.35,1.59.08,1.8.84-2.95.02-5.89.04-8.84.06.35-.2.83-.11,1.08.22-3.16,5.62-9.8,8.83-15.92,7.69,2.43,1.19,5.06,1.93,7.73,2.17-2.62,1.71-5.53,3.5-8.58,3.02-3.05-.48-5.56-4.55-3.59-7.04-2.19,2.19-1.58,6.08-.05,8.82,1.52,2.74,3.79,5.09,4.69,8.12.94,3.17.2,6.68-1.29,9.61-1.5,2.93-3.69,5.38-5.86,7.8,9.81,1.55,19.39,4.67,28.32,9.22-1.2-1.53-2.42-3.1-2.98-4.99-.56-1.89-.29-4.19,1.14-5.47.7-.62,1.6-.95,2.51-1.08,3-.42,5.88,1.2,8.51,2.77-4.34-3.86-6.55-10.21-5.6-16.1.13-.81.41-1.73,1.14-2.04.88-.37,1.78.36,2.63.8,3.52,1.85,7.52-1.28,11.45-1.61,2.5-.21,4.94.73,7.36,1.42,12.16,3.43,25.06.31,37.09-3.59-13.49,2.98-27.68,2.41-40.92-1.63-3.93-1.2-7.82-2.71-11.89-3.21-4.07-.49-8.47.15-11.65,2.86-.68-1.37-.09-3.14,1.02-4.16,1.11-1.02,2.6-1.43,4.05-1.67,15.02-2.54,30.04,9.08,44.89,5.61-1.64.63-3.28,1.26-4.92,1.89,9.69-.02,19.38-.86,28.94-2.53-1.48.42-2.35-1.96-1.65-3.4.69-1.44,2.12-2.36,2.82-3.79,1.17-2.4-.07-5.32-1.57-7.51-3.3-4.82-8-8.57-13.31-10.61,4.37,1.6,8.74,3.2,13.1,4.8-5.4-.93-10.35-4.45-13.19-9.36,2.62-.59,5.4-.41,7.93.52-6.28-2.66-12.29-6.03-17.9-10.02,3.09.48,6.18.97,9.28,1.45-7.63,1.48-15.8-.35-22.18-4.98,2.45.3,4.9.61,7.34.91-1.66-1.17-3.32-2.34-4.98-3.51,2.65-1.93,6.03-2.71,9.2-2.12,1.26-1.68.55-4.31-.99-5.72-1.53-1.41-3.62-1.9-5.62-2.31-5.74-1.17-11.53-2.04-17.35-2.62-4.08-.41-12.37-2.51-16.07-.38-1.23.71-1.64,2.32-2.79,3.14-1.89,1.36-4.79,1.49-6.98,2.07-4.97,1.33-10.78,4.92-15.77,5.43Z"/>
    <path class="cls-1" d="M238.38,205.15c-2.39-1.18-4.12-3.69-4.44-6.44-.23-1.98.2-4.94,1.99-5.93-.39,4.44-.26,8.62,2.45,12.37Z"/>
    <path class="cls-1" d="M232.59,214.04c-.64-2.16-.26-4.62,1-6.45-1.62-.56-3.39.92-3.76,2.67-.37,1.75.32,3.56,1.24,5.07s2.08,2.86,2.84,4.46c.76,1.6,1.06,3.61.18,5.15,1.64-2.88,5.77-9.96,5.03-13.39-1.05-4.89-6.54-1.16-6.54,2.5Z"/>
    <path class="cls-1" d="M254.64,239c6.45,2.33,11,8.25,15.44,13.69,4.44,5.44,9.67,10.98,16.42,12.02-4.73-3.47-7.11-10.12-5.74-16.01,1.38-5.88,6.42-10.62,12.15-11.4-2.3-3.7-5.14-7.03-8.41-9.82,7.01,4.41,13.5,9.74,19.27,15.83-2.38-9.8-9.1-18.34-17.82-22.66,5.11,3.24,10.22,6.48,15.32,9.73,3.67-4.63,3.69-12.01.05-16.67,13.22-.43,26.4-2.42,39.2-5.94-.04,9.11,2.42,18.21,7.01,25.95-5.73,4.03-10,10.3-11.76,17.3-2.21-2.65-4.42-5.3-6.63-7.96-.7,3.03-.57,6.27.37,9.23-1.01-.41-2.02-.83-3.03-1.24-.26,1.25-.53,2.5-.79,3.76-.51-.99-1.01-1.99-1.52-2.98.17.63.34,1.25.51,1.88-1.37-.49-2.74-.97-4.11-1.46.74,1.48,1.47,2.96,2.21,4.44-2.49-1.64-4.97-3.28-7.46-4.92,1,2.68,2,5.35,2.99,8.03-2.47-1.95-4.93-3.91-7.4-5.86,2.92,3.33,5.84,6.65,8.77,9.98-2.93-1.45-5.86-2.91-8.79-4.36.83,1.72,1.67,3.44,2.5,5.16-1.16-.11-2.25-.76-2.94-1.75,1.18,2.38,2.37,4.76,3.55,7.13-2.62-.86-5.02-2.46-6.87-4.59,1.59,3.24,3.18,6.48,4.77,9.72-2.96-3.15-6.36-5.86-10.05-8.01,2.49,1.9,4.39,4.63,5.38,7.69-2-1.41-3.99-2.81-5.99-4.22-.43,1.79-.37,3.7.17,5.45-2.37-1.98-4.74-3.95-7.12-5.93.74,1.95,1.49,3.9,2.23,5.85-.91-.85-1.83-1.69-2.74-2.54-.04,1.33-.08,2.66-.12,3.99-1.97-1.45-3.93-2.9-5.9-4.35l.18,1.74c-4.72-2.72-9.09-6.12-12.93-10.08,1.39,1.52,2.77,3.04,4.16,4.55-3.67-3.58-6.22-6.06-9.89-9.64.8,1.81.47,2.53,1.26,4.34-1.75-.61-1.78-.19-3.99.52-1.5.45-2.54-.14-2.62.82-2.53-.36,2.73-.34-4.2,4.24,2.01-2.06,3.4-4.79,3.91-7.69,1.02.37,2.05.74,3.07,1.12.65-1.91,1.69-4.16,3.62-4.28,1.76-.11,7.33,6.01,0,0-3.16,4.73-10.6,10.86-11.1,8.57-.68-.49-1.46,1.05-.68,1.36-.79-.77-1.58-1.54-2.37-2.32-.27.83-.54,1.67-.81,2.5-2.46-.76-5.35.48-6.6,2.83.09-1,.17-1.99.26-2.99-1.68,1.95-5.11,1.68-6.5-.51-1.18-1.02-2.37-2.04-3.55-3.06,3.43.72,6.93,1.45,10.41,1.08,3.48-.38,7.01-2.03,8.89-5.13,2.71-4.47,1.09-10.78-2.61-14.39-3.7-3.61-8.59-5.42-13.64-5.73,0,0-4.81-.6-4.27-.54,1.36-4.2,13.78-2.6,16.87-1.48Z"/>
    <path class="cls-1" d="M230.79,296.48c1.95-.92,3.69-3.03,4.82-5.86-4.2,8.5-10.05,14.66-16.44,17.31,5.8-1.24,11.32-5.79,15.47-12.71-.82,3.08-2.2,5.73-3.91,7.51,3.85-2.5,7.28-6.84,9.76-12.37-.15,1.85-.29,3.71-.44,5.56,2.05-3.42,5.73-3.56,7.87-.29-1.66,5.36-4.05,10.07-6.93,13.68,3.32-1.84,6.16-6.03,7.67-11.33,1.42,5.08,2.84,10.16,4.26,15.24.53-3.68,1.05-7.37,1.58-11.05,2.86,3.02,5.71,6.04,8.57,9.07-1.66-2.96-.23-8.81,2.18-8.98-.16-2.29-.33-4.57-.49-6.86,2.35,3.36,4.34,7.44,5.84,11.98-.92,1.17-2.17-1.61-1.48-3.16.69-1.55,2.19-1.31,3.1-.12.91,1.2,1.41,3.03,2.03,4.66.62,1.63,1.52,3.22,2.67,3.36-1.78-2.5-3.56-5.01-5.34-7.51.53,5.3,1.54,10.47,2.97,15.29-.15-2.8-.3-5.6-.44-8.41,4.07,6.15,8.13,12.3,12.2,18.45-1.82-6.67-3.64-13.35-5.46-20.02,2.22.93,4.1,3.89,4.8,7.54-.33-2.21-.67-4.42-1-6.63,5.8,3.57,11.26,8.7,16.11,15.15-.68-3.41-1.37-6.82-2.05-10.23,2.88,3.93,6.31,6.72,9.93,8.07.5-2.64-.03-5.75-1.28-7.54,7.08,7.38,14.15,14.77,21.23,22.15-1.52-4.22-3.03-8.44-4.55-12.66,4.87,7.71,9.73,15.41,14.6,23.12-.71-3.95-1.41-7.9-2.12-11.85,1.44,2.03,2.87,4.06,4.31,6.09-1.41-3.41-2.82-6.82-4.22-10.23,5.22,4.7,10.45,9.41,15.67,14.11-1.21-3.22-2.43-6.43-3.64-9.65,2.37,1.37,4.75,2.74,7.12,4.11-.61-1.36-1.21-2.73-1.82-4.09,1.48,1.28,2.97,2.57,4.45,3.85-4.02-5.79-8.54-11.91-13.84-11.82-2.55.04-5.05,1.57-7.6,1.51s-5.45-2.52-5.71-6.78c.04.98.07,1.96.11,2.93-4.13-3.9-7.98-8.65-11.42-14.13.58,3.57,1.15,7.14,1.73,10.71-1.84-4-3.68-8-5.53-12l.49,6.26c-2.09-3.17-4.18-6.34-6.27-9.5.84,3.74,1.68,7.48,2.52,11.21-6.46-12.77-15.73-21.43-25.6-23.91,3.24,5.07,6.49,10.14,9.73,15.21-3.38-3.21-6.76-6.41-10.15-9.62.46,1.6.93,3.2,1.39,4.79-1.81-1.45-3.62-2.9-5.43-4.34-.53,1.94-1.05,3.88-1.58,5.82-.97-2.3-1.94-4.59-2.91-6.89-.2,1.23-.4,2.46-.6,3.69-3.42.15-6.67-4.61-7.04-10.33.18,2.01.36,4.01.55,6.02-3.83-4.63-6.65-11.56-7.83-19.23.64,4.87,1.28,9.74,1.92,14.6-1.63-3.4-3.27-6.8-4.9-10.19.49,2.8.98,5.61,1.47,8.41-2.33-3.74-4.26-8.19-5.67-13.06-.59,7.24.27,14.78,2.4,21.15-1.45-3.03-2.9-6.06-4.36-9.08-.57,1.72-1.15,3.44-1.72,5.17-.8-2.84-1.59-5.69-2.39-8.53-.67.24-1.19,1.35-1.18,2.5.06-2.24-.36-4.5-1.17-6.28.19,1.62.38,3.25.57,4.87-2.52-4.53-3.65-11.15-2.93-17.23.49,6.53-.09,13.27-1.67,19.3.14-2.12.28-4.25.42-6.37-1.35.83-2.7,1.66-4.06,2.5.21-1.41.42-2.81.62-4.22-1.56,3.1-3.13,6.21-4.69,9.31,1.1-3.22,1.97-7.39,1.73-11.11-2.68.9-3.41,12.24-6.96,13.91Z"/>
    <path class="cls-1" d="M252.28,259.33c.63,1.44-.12,3.22-1.35,4.13-1.23.91-2.81,1.12-4.31,1.13-3.2.02-13.42-1.81-13.62-6.22,6.46.28,12.77,1.24,19.28.96Z"/>
    <path class="cls-1" d="M169.47,532.21c9.4-.85,18.66-2.89,27.9-4.92,11.48-2.53,22.95-5.06,34.43-7.59,5.28-1.16,10.86-2.31,15.98-.54,3.59,1.24,6.66,3.83,10.28,4.96,6.73,2.09,14.96-.23,19.43-5.91,46.36-58.78,54.23-95.15,59.93-99.44,5.64,25.74-51.86,119.37-65.95,128.75-14.09,9.38-31.38,11.93-48.06,11.88-8.2-.02-16.47-.61-24.57.76-6.94,1.18-13.59,3.78-20.37,5.74-27.55,7.95-56.74,5.2-85.18,2.38-12.57-1.25-25.14-2.49-37.71-3.74-2.69-.27-5.46-.56-7.82-1.92s-4.24-4.09-3.83-6.88c.82-5.59,8.48-6.03,12.4-9.91,4.36-4.31,3.19-11.84,5.5-17.65,3.29-8.28,12.11-11.16,18.14-16.64,6.4-5.81,5.37-14.88,14.37-18.06,1.76,3.72-4.43,14.17-8.38,15.26,6.02-1.67,11.46-5.53,15.18-10.76-1.32,2.93-2.65,5.87-3.97,8.8,1.57,1.24,3.15,2.47,4.72,3.71-5.43,1.56-17.48,8.26-21.57,1.98,2.23-2.46,5.88-2.18,8.14.26,2.19,2.37,2.9,5.79,3.78,8.96.88,3.17,2.26,6.54,5.09,7.99,1.57.8,3.37.89,5.12.97,12.57.53,25.13,1.07,37.7,1.6"/>
    <path class="cls-1" d="M308.83,322.91c-.7-1.72-2.03-3.16-3.65-3.95.11-1.55-1.13-2.92-2.54-3.4s-2.93-.29-4.4-.1c1.28-1.55-.34-4.28-2.29-4.25-5.27.07-3.24,4.45-1.02,6.18,3.67,2.86,9.56,4.33,13.89,5.52Z"/>
    <path class="cls-1" d="M360.69,363.99c-.93,3.35-.82,7,.3,10.28,1.01-2.47,1.37-5.22,1.02-7.88"/>
    <path class="cls-1" d="M304.47,333.56c1.54.19,2.71-1.21,3.22-2.82.14-.45.23-.91.27-1.36.16-2.07-.32-4.24.4-6.17.6-1.6,1.82-2.9,2.3-4.47-1.92.42-3.76,2.26-4.9,4.03-.84,1.31-3.35,10.51-1.29,10.78Z"/>
    <path class="cls-1" d="M335.77,388.07c-.35,5.09-.7,10.18-1.05,15.27-.06.9-.13,1.82-.5,2.64-1.56,3.4-6.88,2.51-9.13,5.45.71,2.95,3.74,4.43,6.18,6.07,2.44,1.64,4.76,4.87,3.26,7.48-.48.83-1.26,1.4-1.82,2.18s-.81,1.96-.17,2.65c-2.95-3.83-2.95-9.82,0-13.65,1.27-1.65,2.97-2.88,4.39-4.39,1.42-1.51,2.6-3.52,2.39-5.63s-2.37-4.02-4.24-3.22c2.18-1.95,4.45-4.04,5.43-6.87.97-2.83.08-6.61-2.61-7.67.41.38,1.14.26,1.42-.23s.05-1.22-.46-1.43c-2.38,2.16-5.91,2.83-8.86,1.69-2.12-.82-3.87-2.54-4.88-4.65.69.83,10.46,7.03,10.65,4.3Z"/>
    <path class="cls-1" d="M297.51,322.8c-.8,1.68-.82,4.11.73,5.06,1.77,1.08,4.09-.87,4.31-3.01.22-2.14-.9-4.15-1.98-5.97.99.59,1.98,1.18,2.98,1.76.33.19.09,3.61.09,4.1-.99-2.75-1.04-5.98-2.73-8.36-.81,2.09-2.36,4.25-3.38,6.42Z"/>
    <path class="cls-1" d="M317.71,317.26c-.93,3.35-.82,7,.3,10.28,1.01-2.47,1.37-5.22,1.02-7.88"/>
    <path class="cls-1" d="M315.74,324.45c.72-1.44-.11-3.09-1.36-4.17-.35-.3-.72-.55-1.11-.75-1.78-.89-3.88-1.2-5.34-2.6-1.21-1.15-1.93-2.82-3.15-3.85-.31,2.03.67,4.5,1.84,6.25.86,1.3,8.16,7.05,9.13,5.12Z"/>
    <path class="cls-1" d="M339.19,525.96c-5.51,46.22-31.89,89.22-69.71,113.61,31.94-9.22,55.56-37.91,71.3-68.5-12.86,21.41-25.72,42.82-38.59,64.22,20.57-11.1,36.15-31.89,41.58-55.48-3.57,18.76-9.86,36.95-18.6,53.74,23.53-24.36,36.24-59.79,33.86-94.39,9.87,10.13,10.03,28.8.33,39.12,5.15-7.93,10.3-15.86,15.45-23.8-4.81,16.51-4.89,34.51-.23,51.07.46-15.29.91-30.58,1.37-45.88,1.74,5.43,4.86,10.36,8.95,14.15-5.01-14.5-6.53-30.31-4.37-45.56,10.76,16.56,28.37,28.04,47.28,30.83-9.09-7.05-19.87-11.49-28.72-18.88-8.84-7.39-15.78-19.38-12.69-30.8,2.3-8.52,9.45-14.42,14.91-21.18,15.34-19,17.36-48.56,4.76-69.66-3.08-5.16-6.94-9.86-9.18-15.47-2.24-5.61-2.52-12.66,1.25-17.28-1.53,16.81,6.84,34.18,20.64,42.86-2.53-6.94-5.07-13.89-7.6-20.83,7.42,4.99,15.95,8.94,24.75,8.35,8.8-.59,17.69-6.85,19.26-15.95,1.57-9.1-6.93-19.19-15.42-16.71,9.84-12.8,17.5-27.43,22.53-43.01.2,7.24.41,14.48.61,21.73,4.18-.47,8.36-.93,12.54-1.4-2.35,13.69,3.77,28.57,14.88,36.16-9.74-13.73-6.59-35.57,6.6-45.66,15.91-.12,31.82-.24,47.74-.36,4.59-.04,9.33-.1,13.54-2.05,5.44-2.52,9.38-7.93,14.98-10.01,9.29-3.46,19.86,4.18,22.87,14.03,3.02,9.84.14,20.69-4.51,29.81-.07-1.54-.14-3.09-.2-4.63-40.9-16.89-91.99-.09-116.4,38.27,1.63-5.99,3.25-11.97,4.88-17.96-9.7,13.49-22.62,24.41-37.25,31.48,3.98-4.28,7.97-8.55,11.95-12.83-9.93,1.49-18.43,10.38-19.89,20.8,11.05-6.07,22.92-10.49,35.14-13.1-13.19,13.68-23.04,30.89-28.33,49.54-12.03,8.61-20.54,22.46-23.04,37.51,8.37-5.65,16.75-11.3,25.12-16.95-9.88,10.57-19.77,21.13-29.65,31.7,6.12-3.22,12.24-6.44,18.36-9.67-4.39,9.98-10.65,19.05-18.32,26.53,22.53-9.76,36.15-33.65,46.87-56.63,10.71-22.98,20.98-47.73,40.72-62.74-15.16,25.5-21.22,55.57-29.23,84.42-8.01,28.85-19.06,58.38-41,77.68,6.71-6.72,13.42-13.43,20.12-20.15-9.59,10.56-17.31,22.98-22.67,36.44,41.27-26.43,61.69-77.53,73.16-126.83,5.02-21.6,9.13-44.22,21.41-62.34,12.28-18.12,35.7-30.29,55.06-21.25-28.81,5.47-52.37,33.19-54.26,63.85,27.03-26.57,68.49-35.71,103.42-22.8-40.8-1.69-82.03,13.01-113.42,40.43,15.23-6.13,30.46-12.25,45.7-18.38-15.61,11.44-31.23,22.88-46.84,34.32,34.88-20.91,75.79-30.59,115.85-27.41,2.24,7.51-1.2,15.86-6.62,21.29-5.42,5.43-12.52,8.55-19.45,11.55-33.12,14.34-66.23,28.69-99.35,43.03,3.7,5.74,7.4,11.48,11.1,17.22,16.75-18.68,44.54-25.41,67.4-16.3-19.52,2.1-39.66,4.39-56.82,14.39-18.52,10.8-32.47,29.99-52.64,36.8-7.28,2.46-15.08,3.17-22.12,6.3-7.04,3.14-13.55,9.75-13.43,17.77-21.36-3.13-43.72,1.98-61.91,14.14-6.08,4.07-11.84,8.96-18.75,11.13-9.06,2.85-18.74.63-28.12-.6-23.74-3.11-44.32,2.21-66.94,8.46-4.52-6.73.86-10.82,5.82-13.8,7.1-4.27,12.91-9.66,19.06-15.27,8.85-8.08,16.87-17.14,23.93-26.97,13.89-19.35,24.04-41.69,29.25-65.3Z"/>
    <path class="cls-1" d="M557.4,522.63c9.53-5.71,21.44.65,32.39-.24,7.64-.62,14.57-4.79,21.04-9.1,6.47-4.32,12.97-8.97,20.44-10.78,7.47-1.81,16.31-.05,20.81,6.46-3.88-6.15-10.36-10.42-17.33-11.4-11.66-1.65-22.06,8.09-32.92,11.42-14.81,4.54-29.62,9.09-44.43,13.64Z"/>
    <path class="cls-1" d="M208.49,573.52c-1.84,5.36-3.25,11.12-6.83,15.4-3.44,4.12-8.48,6.36-12.37,10.01-5.28,4.94-8.1,12.07-10.76,18.94-3.46,8.95-6.93,17.9-10.39,26.85-1.63,4.21-3.29,8.48-6,12.02-6.34,8.29-17.03,11.05-26.93,13.32,7.04-.86,13.92-3.15,20.14-6.73-9.68,4.79-20.51,6.97-31.19,6.29,21.18-19.99,18.05-57.49,37.23-79.58,3.49-4.02,7.71-7.5,10.09-12.33,2.66-5.38,2.7-11.71,3.52-17.71,2.68-19.6,14.84-37.51,31.63-46.55-2.19,1-4,2.91-4.93,5.23,3.87-.06,7.71-1.36,10.87-3.69-.67,1.86-1.34,3.73-2.01,5.59.79-1.64,3.62.7,2.29,1.89,7.45-2.67,15.3-4.13,23.17-4.31-.06,1.33-.14,2.66-.21,3.98,6.78.94.18,6.99-1.94,9.59-3.44,4.24-6.81,8.54-9.98,13.01-6.27,8.85-11.81,18.35-15.39,28.76Z"/>
    <path class="cls-1" d="M232.36,566.08c2.57-7.77,6.58-15.02,11.74-21.21-16.2,12.71-29.93,28.85-40.14,47.17,9.21,3.86,19.08,5.99,29,6.26-2.22,1.17-4.43,2.34-6.65,3.51,17.13-.02,34.26-3.06,50.44-8.95,1.89-4.98,3.78-9.96,5.67-14.94-6.22.79-12.44,1.59-18.66,2.38,14.12-4.23,59.5-23.54,66.51-37.08,5.1-9.86-28.18-15.35-23.29-25.39,36.08-73.94-.65-3.6-17.66,2.16-11.63,3.94-19.36,15.66-29.04,23.49-4.84,3.92-9.68,7.83-14.52,11.75-2.76,2.23-12.3,7.51-13.4,10.84Z"/>
    <path class="cls-1" d="M311.47,159.42c-1.14,2.17-.07,5.03,1.78,6.58s4.26,2.09,6.57,2.57c7.95,1.63,15.95,3,23.95,4.36-3.42-.11-6.77-1.76-9.04-4.45,4.97.91,9.93,1.82,14.9,2.73-1.14-1.28-2.28-2.57-3.42-3.85,9.14,2.17,18.28,4.34,27.41,6.51-7.8.57-15.6,1.13-23.41,1.7,5.8.86,11.59,1.73,17.39,2.59-2.41.37-4.81.74-7.22,1.11,3.77,2.5,8.21,3.87,12.68,3.93-1.21-.34-2.15-1.54-2.23-2.86,6.12-3.49,14.36-2.23,19.27,2.95-.76.3-1.51.59-2.27.89,10.63,7.83,12.88,25.6,4.57,36.07,8.52-8.16,11.83-21.79,8.09-33.24,4.79,1.57,7.58,7.88,5.63,12.73-.27-1.68-.53-3.36-.8-5.04,1.77,4.32,1.08,9.65-1.73,13.31,2.63-3.85,4.04-8.59,3.98-13.32,1.25-.03,2.5-.07,3.75-.1,7.2,2.52,11.21,12.18,8.07,19.42,1.7-1.06,2.02-3.51,1.77-5.56-.25-2.06-.88-4.15-.4-6.15.48-2.01,2.77-3.72,4.42-2.57,1.09.75,1.32,2.3,1.42,3.66.39,5.52.13,11.09-.77,16.54,3.04-3.85,6.08-7.69,9.12-11.54,1.42,1.12,2.23,3.03,2.06,4.89-.01-1.64-.03-3.27-.04-4.91,6.94,2.71,14.01,5.49,19.77,10.37,5.76,4.88,10.07,12.32,9.48,20.06.84-.29,1.67-.58,2.51-.87-3.5,1.24-5.66,5.18-5.87,9.04-.21,3.87,1.2,7.64,2.99,11.02,8.63,16.33,27.37,26.05,44.97,23.35-2.52-5.65-5.03-11.3-7.55-16.94,4.41-10.22,2.77-23.02-4.07-31.65,4.46-1.73,5.31-8.27,3.49-12.88-3.8-9.64-14.4-13.8-23.88-16.93-22.96-7.59-45.92-15.17-68.88-22.76-16.75-5.54-33.52-11.07-50.52-15.74-8.65-2.37-17.35-4.52-26.13-6.32-4.31-.88-8.81-2.08-13.2-2.42-2.33-.18-7.15.03-3.17,3.58-1.18-1.97-4.27-2.12-5.46.13Z"/>
    <path class="cls-1" d="M513.32,235.29c1,6.35-1.43,12.96-.01,19.22,1.25,5.52,5.34,9.9,9.94,12.9,4.59,3,9.75,4.87,14.64,7.28,12.38,6.11,23.11,15.86,30.65,27.84-8.64-8.13-17.28-16.25-25.92-24.38,5.73,7.96,11.47,15.93,17.2,23.89-9.12-5.86-17.12-13.64-23.38-22.75,2.2,7.46,4.47,15.06,8.71,21.48,4.25,6.42,10.87,11.59,18.31,11.94-11.95,1-24.07-7.01-28.38-18.75-1.47-4-2.11-8.34-3.99-12.14-1.88-3.81-5.56-7.14-9.62-6.65,5.58,13.17,11.91,27.22,23.9,34.25,5.81,3.4,12.46,4.82,18.57,7.58,6.11,2.76,12.07,7.48,13.57,14.28,9.01,3.98,19.07,9.19,21.63,19.09.94,3.64.7,7.48.93,11.25.22,3.76,1.04,7.74,3.58,10.4,2.55,2.66-1.24,7.22,1.08,4.34-3.51,4.31-1.68,1.31-6.17-1.84,2.12,5.2,7,9.04,12.34,9.75-5.16.52-10.31,1.03-15.47,1.55,4.27,5.7,10.51,9.74,17.28,11.2-7.37,3-15.61-3.02-19.25-10.39-3.64-7.37-4.3-15.93-6.84-23.78-2.54-7.86-8.12-15.75-16-16.43,3.56-7.11.99-16.22-4.09-22.22-5.08-6.01-12.18-9.61-19.06-13.13-6.88-3.52-13.93-7.28-18.8-13.48-2.91-3.71-4.97-8.22-8.5-11.29-5.07-4.4-12.16-5.01-18.09-8.01-7.16-3.62-12.34-10.65-15.54-18.29-3.19-7.64-4.62-15.94-6.02-24.16-.96-5.63-1.88-11.68.39-16.88,2.62-6.01,14.66-15.62,19.49-9.01,2.51,3.43,4.23,8.38,6.66,12.09,2.67,4.08,5.46,8.29,6.25,13.28Z"/>
    <path class="cls-1" d="M442.76,220.79c.83,8.65,3.28,17.12,7.16,24.8,1.01-7.71,2.02-15.42,3.03-23.14.57,10.29,1.83,20.55,3.75,30.66,3.16-5.52,6.42-11.45,6.19-17.89-.22-6.19-3.65-11.69-6.96-16.82-1.91-2.96-3.86-5.96-6.48-8.24-10.05-8.71-7.29,4.27-6.67,10.62Z"/>
    <path class="cls-1" d="M427.24,214.48c-2.39,5.2-6.72,9.12-9.67,14-4.54,7.5-5.52,17.26-2.56,25.59,2.96,8.33,9.78,15.04,17.89,17.59-6.27-4.99-11.87-12.63-10.56-20.78.86-5.34,4.48-9.64,7.52-14.02,3.04-4.38,5.71-9.81,4.3-15.02.08,10.44.16,20.89.24,31.33.02,2.15.05,4.38.93,6.32.88,1.94,2.88,3.5,4.89,3.1,2.08-.42,3.39-2.77,3.48-5,.09-2.23-.72-4.37-1.42-6.47-2.79-8.34-4.06-17.23-3.72-26.06.24-6.25,1.26-12.71-.64-18.64-.9-2.81-8.85-13.25-11.56-7.93-.87,1.7,1.77,5.45,2.09,7.12.55,2.94.02,6.21-1.21,8.88Z"/>
    <path class="cls-1" d="M468.69,313.34c1.85,4.27,3.82,8.71,7.33,11.62,3.35,2.79,7.73,3.84,12,4.1,4.04.24,8.66-.47,10.97-3.95,2.48-3.73,1.16-8.95-1.11-12.83-5.15-8.77-14.01-13.86-22.3-18.79-4.25-2.52-8.55-4.99-12.48-8.04-2.27-1.76-7.98-9.33-10.1-8.72,3.73,12.46,10.53,24.68,15.7,36.6Z"/>
    <path class="cls-1" d="M495.83,297.44c5.29,3.37,11.01,6.83,13.78,12.64,3.32,6.95,1,16.3-5.14,20.66-6.63,4.66-16,4.52-22.5-.33,6.07,6.87,7.23,18,2.72,26.08,3.66-6.36,9.97-10.98,16.92-12.4,6.95-1.42,14.45.39,20.12,4.84-10.05-4.32-21.71-4.35-31.78-.09,20.57,5.73,42,8.05,63.25,6.87-3.99-1.37-7.98-2.74-11.97-4.11-2.51-10.15-.2-21.49,6.05-29.67-9.36,4.12-15.11,15.73-12.93,26.14-7.7-4.72-14.1-11.73-18.25-20.01,5.74-5.59,8.5-14.35,7.06-22.43-1.45-8.08-7.05-15.2-14.33-18.21-6.18-2.56-13.06-2.23-19.64-3.25-8.93-1.38-17.14-5.38-24.25-11.14,6.79,10,20.98,18.08,30.9,24.41Z"/>
    <path class="cls-1" d="M391.93,233.54c-5.95,10.17-9.51,23.28-4.39,33.93,5.45,11.33,19.27,16.94,22.85,29.07,1-5.44-1.97-10.84-5.51-14.94-3.55-4.1-7.84-7.59-10.51-12.37-4.58-8.2-3.12-19.59,3.36-26.23-4.17,9.86-2.77,22.07,3.53,30.6,1.22-11.05,2.45-22.11,3.67-33.16.66-5.99,5.46-22.97,1.53-27.62-5.45,5.75-10.44,13.75-14.52,20.71Z"/>
    <path class="cls-1" d="M398.92,301.8c3.07,1.23,6.15,2.46,9.22,3.69,4.23,7.04,3.58,16.93-1.53,23.3,3.37-1.22,6.74-2.45,10.1-3.67-7.41,11.3-11.17,25.18-10.55,38.87-4.73-4.37-8.91-9.4-12.39-14.92,8.05-8.19,11.34-21.16,8.25-32.47-3.09-11.31-12.43-20.48-23.39-22.96,7.12,2.69,13.2,8.27,16.69,15.31-3.56.88-7.36.62-10.78-.75,2.52,1.76,5.08,3.56,6.93,6.07,1.86,2.5,2.92,5.88,2.01,8.9-.64,2.12-2.14,3.81-3.59,5.43-5.76,6.4-11.53,12.79-17.29,19.19,11.03-6.63,20.18-16.66,26-28.53,2.98.02,4.93-3.7,4.42-6.78-.52-3.08-2.66-5.53-4.7-7.8-3.59-3.98-14.12-12.27-14.83-17.37,3.13-.45,7.16,3.03,9.4,5.23,1.73,1.7,4.46,8.45,6.03,9.27Z"/>
    <path class="cls-1" d="M417.04,338.32c-3.73,10.37-1.72,21.92.35,32.79.12.61.37,1.36.97,1.4.67.05.99-.83,1.1-1.52,1.19-7.37,2.1-14.8,2.74-22.25.36-4.24,3.26-17.94-.5-20.5-2.01,2.39-3.52,6.9-4.66,10.07Z"/>
    <path class="cls-1" d="M436,335.77c3.86-16.89-1.33-35.73-13.18-47.85,6.47,5.51,12.21,11.96,17.01,19.11-2.64-4.48-4.43-9.51-5.23-14.71,1.78,2.25,3.45,4.6,5.01,7.02-3.68-7.82-26.75-24.27-22.19-6.05,1.91,7.62,4.63,15.09,7.77,22.24,1.58,3.59,3.29,7.11,5.14,10.56.81,1.51,5.99,8.28,5.67,9.68Z"/>
    <path class="cls-1" d="M396.72,375.07c-1.62,2.81-3.81,5.23-5.34,8.09-3.47,6.44-3.12,14.94.85,21.05-1.57-5.51-3.07-11.74-.4-16.76,1.74-3.27,4.97-5.39,6.98-8.48,1.96-3.02,2.81-7.41,1.52-10.86-2.38.47-2.32,4.72-3.61,6.95Z"/>
    <path class="cls-1" d="M383.14,456.26c-3.85,6.99-10.11,12.21-14.21,19.03-6.07,10.1-6.87,22.91-4.63,34.61,2.25,11.7,7.27,22.59,12.25,33.32-7.62-14.71-10.28-33.69-1.78-47.86,3.35-5.59,8.19-10.05,11.71-15.53,6.1-9.5,7.79-21.98,4.46-32.89,1.58,7.56,3.16,15.22,2.99,22.96-.18,7.74-2.3,15.7-7.29,21.4-2.93,3.34-6.7,5.77-9.59,9.14-2.89,3.37-4.84,8.3-3.08,12.45.07-3.69,2.31-6.98,4.96-9.41,2.65-2.42,5.78-4.22,8.5-6.55,10.07-8.64,13.36-23.74,11.51-37.25-1.84-13.51-8-25.89-14.07-37.97,2.87,4.53,3.24,15.41,4.12,20.83-.88-1.36-2.07-2.6-3.6-3.03.28,5.9.87,11.1-2.24,16.74Z"/>
    <path class="cls-1" d="M344.21,497.08c1.38,5.55,4.32,10.52,6.51,15.78,2.19,5.26,3.63,11.29,1.82,16.7,0-27.84,2.03-54.98,3.99-82.72-4.84,15.95-16.6,32.95-12.32,50.25Z"/>
    <path class="cls-2" d="M94.37,322.22c49.92-21.23,106.99,4.12,127.22,56.51,20.23,52.39-3.93,112.28-53.85,133.51-49.92,21.23-106.99-4.12-127.22-56.51-20.23-52.39,3.93-112.28,53.85-133.51M84.66,297.07c-63.24,26.89-93.73,102.48-68.11,168.85,25.62,66.36,97.66,98.36,160.89,71.47,63.24-26.89,93.73-102.48,68.11-168.85-25.62-66.36-97.66-98.36-160.89-71.47h0Z"/>
    <path class="cls-1" d="M205.78,313.99c-2.82,9.78-9.94,15.23-19.22,18.95,15.19,10.98,27.6,26.56,35.03,45.8,20.23,52.39-3.93,112.28-53.85,133.51-22.25,9.46-45.91,9.65-67.11,2.33-4.72,3.41-11.37,9.47-10.26,15.89.4,2.33.23,5.51-.37,9.01,27.44,10.16,58.37,10.28,87.45-2.09,63.24-26.89,93.73-102.48,68.11-168.85-8.66-22.43-22.64-40.92-39.77-54.55Z"/>
    <path class="cls-1" d="M554.67,315.24c-7.19-2.43-14.37-4.86-21.56-7.28,13.78,9.43,21.61,27.62,19.22,44.7,1.47-9.08,1.28-18.46-.56-27.47,9.7,7.03,16.34,18.54,17.79,30.81-7.14,3.64-14.28,7.28-21.42,10.93-5.85-17.4-11.71-34.8-17.56-52.2,10.06,18.3,7.74,43.19-5.5,59.1,22.02-10.83,51.58,1.42,60.61,25.12-13.81,5.83-26.41,14.79-36.69,26.08,9.64,2.03,19.29,4.06,28.93,6.09-8.96,8.64-19.07,15.97-29.93,21.73,3.68-.09,5.54,6.1,2.48,8.25,9.4-1.06,18.86-1.41,28.31-1.04,3.48.13,7.28.51,9.75,3.08,3.71,3.86,2.32,10.81-1.32,14.75-3.63,3.94-8.79,5.79-13.52,8.09-4.74,2.31-9.57,5.63-11.17,10.85,11.55-8.3,25.66-12.62,39.66-12.13-8.49,19.04-25.48,33.66-44.93,38.68,12.61,2.83,25.62,8.84,31.93,20.63-6.93,1.85-13.85,3.7-20.78,5.55,14.02-1.98,28.58.51,41.28,7.05-11.14,1.63-22.27,3.25-33.41,4.88,17-5.51,35.21,7.05,44.28,23.11,9.08,16.05,11.75,35.06,16.84,52.95,1.48,5.18,3.3,10.52,7.06,14.23,3.76,3.71,9.99,5.19,14.11,1.94,4.15-3.29,4.51-9.58,4.47-15.03-.49-74.91-5.33-151.69-34.22-220.19-8.62-20.43-31.4-71.7-37.95-84.35-8.35-16.13-8.51-19.37-36.71-49.5-12.05-12.87-61.64-50.31-48.13-20.5,9.96,21.24,30.25,37.61,48.63,51.11Z"/>
    <path class="cls-1" d="M531,310.01c-1.74,8.15-8.83,15.12-16.78,15.06-.22,9.35,4.99,18.18,12.02,23.93,7.03,5.75,15.7,8.84,24.36,11.05,7.53,1.93,16.03,3.12,22.59-1.23,6.29-4.17,9.08-12.66,8.4-20.43-.68-7.77-4.27-14.94-8.42-21.42-11.01-17.23-26.56-31.15-44.34-40.17-7.66-3.89-13.84-4.17-7.77,6.01,5.39,9.05,12.53,15.13,9.95,27.2Z"/>
    <path class="cls-1" d="M376.81,256.04c1.07,5.32,3.47,10.39,3.54,15.82.16,14.26-15.17,23.89-17.47,37.95-1.21,7.41,1.42,14.96,1.04,22.47-.37,7.37-3.59,14.21-5.35,21.36-1.76,7.15-1.71,15.67,3.33,20.83-1.08-1.33-2.74-2.11-4.4-2.08,1.88,5.25,3.76,10.51,5.63,15.76-4.33,4.57-8.66,9.15-12.99,13.72.28,3.24.57,6.49.85,9.73-1.97-.17-3.95-.34-5.92-.51-1.2,9.53-4.63,18.75-9.91,26.61,6.33-16.59,10.99-33.88,13.88-51.5-4.3,17.58-13.83,33.71-26.91,45.58,6.4-3.28,11.84-8.58,15.45-15.03-6.91,12.8-15.17,24.81-24.59,35.71,18.95-12.99,34.41-31.53,44.15-52.97,3,25.52-4.81,52.23-20.94,71.59,12.66-25.53,25.59-52.05,27.1-80.79,8.08,22.36,7.47,48.04-1.66,69.95,8.61-13.15,13.13-29.19,12.73-45.14,3.24,14.48,2.21,29.97-2.91,43.83,9.35-13.97,8.65-32.46,8.28-49.53-.37-17.07.66-36.01,12.14-48.11-4.51,9.25-11.2,17.32-19.3,23.28,5.38-12.23,10.77-24.47,16.15-36.7-7.57,6.36-15.14,12.71-22.71,19.07,3.92-7.35,7.87-14.81,9.76-22.99,1.89-8.18,1.47-17.32-2.93-24.35,3.13,1.28,5.63,4.14,6.58,7.52.41-7.26-1.74-14.65-5.94-20.44,5.52,2.72,9.78,8.09,11.35,14.27-1.9-5.29-3.8-10.58-5.7-15.87,2.31.71,4.31,2.45,5.41,4.7-1.22-4.67-2.45-9.34-3.67-14.01,3.78.06,7.55.72,11.14,1.95-5.09-18.05-10.24-36.88-7.2-55.43,1.74-10.61,6.12-20.84,5.89-31.61-.36-16.61-11.42-30.55-21.91-43,2.04,7.08,4.09,14.17,6.13,21.25,1.43,4.95,6.45,9.69,8.23,15.02,2,6.03,2.87,12.47,2.57,18.84-.28,5.88-1.38,12.55-4.3,17.66-3.15,5.5-6.08,8.31-4.62,15.58Z"/>
    <path class="cls-1" d="M328.85,162.69c10.35,10.53,21.76,19.9,33.98,27.9-7.92-8.76-15.84-17.53-23.75-26.29,9.71,4.36,16.91,13.49,21.41,23.52,4.5,10.03,6.62,21.02,8.7,31.89,2.64-16.37-2.94-33.95-14.4-45.39,12.39,5.12,21.4,18.25,22.1,32.21.7,13.96-6.94,28-18.75,34.46,11.98-7.88,20.74-21.22,22.74-35.91,2-14.69-3.07-30.41-13.67-40.23-11.38-10.55-27.32-13.51-42.44-14.88-5.06-.46-10.3-.76-15.07,1.07-4.77,1.83-8.95,6.36-8.99,11.68-.03,4.55,3.3,8.88,7.54,9.82,4.24.94,8.95-1.61,10.68-5.78,9.81,8.79,21.39,15.38,33.76,19.22-13.61-2.04-26.77-7.38-38.15-15.49,12.2,9.99,26.21,17.55,41.06,22.15-9.14-.11-18.25-2.36-26.48-6.55,1.55,1.19,3.1,2.38,4.65,3.57-12.56-1.49-24.4-8.81-31.73-19.63"/>
    <g>
      <path class="cls-1" d="M221.49,203.08c-.71-.09-.96.93-.72,1.47-.54.76-1.31,1.57-1.41,2.33,0,.13.08.1.25-.18.37-.54.87-2.08.88-2.43.04-.39-.15.14-.11,1.07l1.98-4.63c.47-.5,1-1.18,1.04-1.77.06-.43,0-.93-.29-.87-.97.38-1.19,2.39-1.18,3.54-.45.26-1,1.04-.43,1.46h0ZM222.44,203.43c.5.45-.19,1.25-.65,1.46-.14,1.94-2.79,5.01-3.7,1.97-.31-.7.01-1.6.38-2.32l1.98-4.63c.33.94.42,1.49.74,1.17.28-.29,1.06-1.74,1.69-2.17.3-.23.52-.19.64,0,.51.84-.09,1.97-.51,2.91.26.52.15,1.62-.56,1.61h0Z"/>
      <path class="cls-1" d="M239.89,119.81c.37-1.89,2.71-1.15,3.33.26.24.41.34.94.49.81.1.02,1.14.18.27.08-.42-.02-4.75-.63-1.45-.08-.29-.04-7.44-1.04-7.46-1.07-1.74-.29.58,0,.8.02.37-.26,1.19-1.4,2.3-1.48.97-.16,1.78.5,1.72,1.47h0ZM239.75,120.81c-.06.97.73,1.66,1.71,1.51,1.11-.07,1.93-1.19,2.29-1.44l1.4.23c-1.06,0-6.77-.86-8.1-1.02,3.33.46-1.03-.2-1.43-.26-.86-.13.17-.01.28,0,.16-.14.26.39.5.79.65,1.41,2.98,2.09,3.34.19h0Z"/>
      <path class="cls-1" d="M239.93,119.48c-.01.19.33-1.31,1.33-2.31.97-1.03,2.04-.61,1.92.41-.06,1.06-1.47,2.12-1.76,2.34-.33.29.22.35,1.13.75l-5.48-.75c-.8-.33-1.54-.94-1.52-1.82-.23-1.24.92-2.82,2.36-2.49,1.36.27,2.03,2.82,2.01,3.87h0ZM239.8,120.48c-.05,1.12.6,3.75,1.98,4.12,1.38.41,2.59-1.05,2.33-2.25,0-.85-.76-1.38-1.54-1.66l-5.48-.75c.91.34,1.47.36,1.15.59-.29.17-1.69,1.16-1.74,2.17-.11.97.97,1.33,1.95.25,1.01-1.05,1.36-2.6,1.36-2.47h0Z"/>
      <path class="cls-1" d="M240.52,118.85c1.34.11,2.68.3,4,.54-2.77-.41-6.24-.67-9.03-1.02-.11-.02-.34-.05-.44-.07-.25-.03,9.61.55,9.55.54h-4.08ZM239.52,118.78h-4.08s9.77.56,9.55.55c-.11,0-.34-.01-.45-.02-2.88-.28-6.19-.52-9.03-1.02,1.33.23,2.67.39,4.01.49h0Z"/>
      <g>
        <path class="cls-1" d="M718.27,459.47l-76.25.13h-.48c-5.14-18.34-12.48-36.93-20.56-54.23-7.85-17.54-15.9-34.99-23.84-52.48-.32-.92-.32-1.93-.66-2.83-.77-2.45-2.12-4.65-3.83-6.57-4.59-8.95-8.93-18.47-14.61-26.76-7.11-10.1-16.27-19.45-24.8-28.58-5.14-5.57-10.93-10.22-16.9-14.86-8.26-6.24-17.04-12.52-26.49-16.54-1.51-4.91-.84-10.26-.51-14.46.93-6.84-1.65-12.31-5.55-17.77-2.66-3.7-4.21-8.18-6.67-11.88-.23-.34-.52-.76-.65-.82l-.65-.29-.19-1.64c-2.16-18.1-6.11-54.77-8.1-72.91l-.22-2.07,1.6-1.43.32-.29-1.37,3.57-1.66-13.41c-.68-4.28-.64-9.02-1.64-13.31-.02-.07,2.35,3.35,2.35,3.34,0,0-1.58-.78-1.58-.78l-.67-1.98-.72-2.13-.28-1.99c.04.16.03.15.01.09-.02-.07-.11-.26-.28-.52-.28-.64-1.52-1.65-2.16-2.56-7.94-10.81-21.3-18.12-33.81-22.96-37.91-14.96-84.51-34.37-122.48-48.49-13.49-4.92-27.65-8.76-41.68-11.86-6.61-1.37-14.04-2.83-20.54-2.47,0,0-1.06.12-1.06.12-.26.02-.18.04-.14.02.04-.04.04-.04.02-.01-.06,0-.43.28-.78.78-6.04,10.5-6.4,23.26-8.4,35.24-1.86,13.38-7.38,51.35-9.35,65.33,0,0-6.02-.4-6.02-.4,0,0,6.02.4,6.02.4l-.15,1.07-5.98-.8.15-1.03,5.96.81-.16,1.1-5.94-.77.02-.15,5.93.85-2.26,15.76-.07.46c-1.03,1.89-1.32,4.95-1.44,7.36-.06,1.05,0,2.05-.06,3.04l-1.35,9.44s-3.91-2.79-3.8-2.79c0,0,4.85-2.18,4.85-2.18l-1.06,5.28c-2.39,11.32-6.77,29.01-9.39,40.51,0,0-1.16,4.94-1.16,4.94l-2.98-4.06-2.19-2.98,3.89-2.4c1.01,2.05,1.96,4.14,1.92,6.64.07,3.05-2.42,6.02-5.79,6.11,0,0,1.42-3.86,1.42-3.86,2.8,2.29,2.02,7-1.47,8.28l-1.62-3.97c1.69-.85,5.09-2.28,6.77-3.1-.07,3.62-.26,7.52-2.48,10.54,0,0-2.51-3.03-2.51-3.03l2.36-.98,5.78-2.39c-1.36,2.13-4.09,6.75-5.4,8.84l-2.88-2.67c1.15-.78,3.81-2.7,4.91-3.45l1.14,1.56c11,14.14,7.15,21.18-3.51,33.33-2.59,3.32-5.25,6.53-5.65,10.67-.12,3.95,4.95,4.89,8.26,6.73,1.36.64,2.53,1.44,3.89,2,1.96.9,5.39,1.6,7.56,2.11-6.37,4.32-13.08,8.94-16.15,16.21,0,0-3.03-1-3.03-1l1.01-4.53,3.07.87-1.84,5.28-.13-1.32c1.8,3.09,2.24,6.73,1.64,10.11-.6,3.37-2.29,6.66-5.1,8.89l.43-.53-7.8,15.64-.54,1.08-1.17-.27-4.48-1.05c-43.19-34.18-104.37-35.15-147.48-.21C13.95,349.1-1.72,411.27,17.48,462.07c-7.98.13-23.68.14-30.77.25-13.89-.08-26.08,12.25-25.78,26.11,0,0,.05,6.6.05,6.6.28,47.51.68,134.33.91,181.53.59,15.27,13.53,25.58,28.71,24.18,0,0,6.61-.02,6.61-.02l105.68-.32h1.06c38.75,16.93,80.62,26.39,122.41,32.8,104.14,14.5,211.86,12.81,314.4-11.59,20.7-5.17,41.09-11.63,60.59-20.04,6.61.37,109.23,1.08,112.26,1.32,0,0,3.1.04,3.1.04l1.55.02,1.41-.06,1.41-.06,1.4-.2c.94-.09,1.86-.31,2.77-.55,14.18-3.83,21.5-16.34,20.54-30.81.14-1.9.22-27.96.33-30.96.48-45.46,1-106.3,1.06-151.72.25-15.61-13.26-29.31-28.91-29.13h0ZM602.13,709.48l1.61-.34c-78.8,34.31-166.14,42.74-251.23,43.8-85.18-.69-172.59-8.95-251.72-42.72,0,0,2.1.45,2.1.45l-105.68-.32-6.61-.02h-3.3c-18.2.5-34.71-15.26-34.69-33.56-.07-1.31-.01-2.26-.03-3.41l.02-6.61c.13-7.76.04-31.4.16-39.63-.27-20.57.87-113.96.69-132.1.14-2.88-.1-7.59.31-10.32,1.77-16.22,16.64-29.41,32.95-29.09,0,0,26.42.21,26.42.21l-2.99,4.11c-19.38-59.11,6.01-129.41,61.42-159.04,29.87-16.56,66.64-19.64,98.75-7.93,12.79,4.64,24.75,11.43,35.42,19.83l-.6-.29,4.48,1.04-1.71.8,7.75-15.67.15-.31.27-.22c4.43-3.53,5.46-10.9,2.28-15.59,0,0,.24-.7.24-.7l1.82-5.29,3.07.87-1,4.53-3.03-1c1.44-3.29,3.54-6.32,6.04-8.86,2.5-2.56,5.32-4.67,8.13-6.63l.57,2.94c-3.01-.59-5.86-2.02-8.55-3.47-6.7-2.8-13.16-5.73-9.06-14.8,7.27-14.74,22.55-19.3,8.19-36.57,0,0,2.74.44,2.74.44l-3.28,2.35-2.88-2.67,2.11-3.56,2.54,2.92c-2.06.83-6.6,2.9-8.61,3.73,1.68-2.77,5.48-7.27,5.28-10.72,0,0,3.01,1.99,3.01,1.99l-3.59,1.72-1.62-3.97s.25-.23.27-.46c.02-.24-.04-.27-.21-.44l-5.83-4.59,7.26.73c.12.01.62-.2.91-.55,1.05-1.71-.12-3.59-1.13-5.75,0,0,3.89-2.4,3.89-2.4l2.24,2.94-4.13.88c1.46-6.4,5.2-24.29,6.62-30.57.74-3.38,1.47-6.78,2.14-10.32l3.79,3.1-.1.05-4.45,2.19.63-4.97,1.19-9.47-.02.48c-.09-3.07.01-5.94.61-8.96.23-1.04.5-2.11,1.04-3.27l-.26.86,1.99-15.8,5.93.86c.05-.05-5.94-.77-5.94-.79l.14-1.12,5.96.81-.13,1.01-5.98-.8.14-1.08s6.02.4,6.02.4l-6.02-.4,5.5-43.62,2.75-21.78c1.79-11.28,2.66-35.42,12.48-42,1.15-.8,2.86-.92,4.13-1.11,15.46-.72,29.97,3.77,44.69,7.4,35.4,10.09,69.23,25.28,103.44,38.45,15.33,6.1,30.67,12.34,45.93,18.63,12.46,5.73,24.09,12.71,32.44,24.21,0,0-.33-.42-.33-.42,2.08,2.26,4.75,5.51,4.2,9.17,0,0-.28-1.99-.28-1.99l1.01,3.09s-2.26-2.77-2.24-2.76l2.09,1.05.26,2.3c.02.07-.11-.58-.11-.57,1.11,4.55.9,9.34,1.58,14.01.24,1.42,1.52,14.48,1.7,15.52,0,0-1.61,1.4-1.61,1.4l-.32.28,1.37-3.5,6.83,73-.84-1.93c1.69,1.83,2.44,3.87,3.57,5.92,3.27,7.89,9.66,14.17,10.35,23.03.58,5.84-1.57,12.59-.39,17.76l-1.7-2.03c9.62,4.59,17.78,10.76,26.01,17.24,8.06,6.23,15.6,13.73,22.27,21.44,6.77,7.65,13.63,15.27,19.45,23.92,5.7,8.71,9.68,18.03,14.22,27.34,0,0-.24-.37-.24-.37,1.24,1.48,2.33,3.12,3.15,4.91.84,1.77,1.35,3.69,1.62,5.62l-.12-.4c7.63,17.66,15.15,35.37,22.86,52.98,7.78,17.29,14.92,35.9,19.85,54.19,0,0-.61-.46-.61-.46l76.25.13h0c14.98-.28,28.62,12.09,29.99,26.98.58,6.19.11,49.38.38,55.79-.14,35.54.93,88.4,1.12,123.86,0,8.26.99,17.67-3.21,25.26-5.1,10.58-16.5,17.67-28.29,17.75-.59,0-3.89.06-4.64.05,0,0-12.39.15-12.39.15"/>
        <path class="cls-1" d="M39.08,455.91c-15.89-40.99-10.3-90.7,25.11-119.97,25.37-21.01,60.83-27.72,92.39-19.11,11.77,3.03,22.97,8.47,33.13,15.29,0,0-3.51,2.51-3.51,2.51l-5.49,3.93.83-4.45c1.11,1.33,4.15,5.32,5.19,6.58,0,0-1.59,2.21-1.59,2.21-2.31,3.18-3.09,7.25-2.65,11.03,0,0-.81,1.23-.81,1.23-5.25,7.91-10.65,15.72-16.03,23.54l-3.26-.42c-1.53-.11-3.03,1.95-3.21,3.39-.08.58.02.99.18,1.3l2.47,4.83c-3.29,1.09-11.36,3.77-14.74,4.9,0,0,.49-9.48.49-9.48l4.44,1.84-3.4,9.66c-1.04-.15-2.51,1.67-2.27,2.44l-4.9,5.61c1.15-.09,2.04-.75,2.27-1.49.13-.71-.25-1.57-1.13-2.2,0,0-.04,8.89-.04,8.89l-13.53,9.14,1.81-6.92c3.7,7.49,1.01,16.64-5.26,21.79-2.11,1.71-4.83,3-7.79,3.32l1.2-9.92c7.31,2.9,8.55,13.63,2.16,18.15l1.81-5.62c.87,2.86,2.78,8.91,3.66,11.8,0,0-6.74-.55-6.74-.55-3.12-.28-6.77,2.66-7.5,5.81,0,0-.76,2.85-.76,2.85-3.73.62-7.58,1.18-11.31,1.71,0,0,2.5-4.92,2.5-4.92.7,1.93,2.31,6.08,3.02,8.02,0,0-4.93-.3-4.93-.3-19.98-1.3-39.97-2.72-59.99-2.79,0,0-.38,0-.38,0l-.13-.33-1.31-3.27h0ZM40.02,455.54l1.38,3.21-.51-.34c10-.09,20-.35,30-.92,10-.51,20-1.25,30-1.86l-3.04,4.71c-.86-1.53-2.61-4.97-3.47-6.54,4.26-1.19,8.9-2.46,13.13-3.62l-3.17,3.24c1.26-7.6,7.7-13.74,15.7-13.85,0,0-4.6,6.33-4.6,6.33l-1.81-4.82,1.81-5.62c-.2.1-.28.24-.27.16,0-.07.02-.29-.02-.51-.03-.22-.14-.41-.16-.42-.04-.02.1.18.38.29l1.2-9.92c1.91-.3,3.55-2.03,4.4-3.89.92-1.9,1.11-4.35.22-6.14,0,0-2.07-4.31-2.07-4.31l3.89-2.6,13.56-9.09-.04,8.89c-1.73-1.15-2.83-3.04-3.22-4.64-1.25-5.02,1.75-10.63,7.33-11.15l-4.9,5.61c-.43-8.06,7.68-15.17,15.63-12.93,0,0-3.4,9.66-3.4,9.66l-4.39-1.97-12.58-5.63c5.42-1.6,17.08-5.02,22.43-6.6l-3.01,6.65c-3.8-8.75,4.54-19.81,14.09-17.57,0,0-4.78,1.79-4.78,1.79,5.17-6.87,10.33-13.75,15.62-20.54l-.73,2.39c0-5.27,1.89-10.37,5.26-14.32l-.1,4.09c-1.18-1.79-4-6.1-5.16-7.85,2.04-1.22,6.49-3.83,8.51-5.04l-.09,4.69c-1.89-1.35-4.39-3.26-6.36-4.42-42.18-27.07-90.73-12.47-119.52,26.27-20.78,28.15-30.06,65.67-17.13,99.14h0Z"/>
      </g>
    </g>
  </g>
</svg>